<svg width="331" height="63" viewBox="0 0 331 63" fill="none" xmlns="http://www.w3.org/2000/svg">
<path d="M14.7015 0.00264559C15.146 -0.00264208 15.7095 -0.0022722 16.1486 0.0254588C20.0926 0.314046 23.7614 2.17234 26.3478 5.19145C27.8415 6.9071 29.1388 9.48929 29.6248 11.7161C30.1159 13.9659 29.9758 16.4852 29.9759 18.804L29.9756 27.2967L29.9744 35.6093C29.9712 36.3452 29.9732 37.0813 29.9806 37.8173C29.9888 38.6859 30.1413 39.8467 29.437 40.477C29.239 40.6542 28.6853 40.912 28.412 40.9361C27.394 40.9922 26.327 41.0082 25.3056 40.9801C23.7966 40.9385 22.1519 41.0646 20.6567 40.9517C20.6135 40.3937 20.756 34.6257 20.9802 34.4102C21.2845 34.1177 21.6785 33.9585 22.0483 33.7705C22.7238 33.4211 23.3146 32.9255 23.7784 32.319C24.1031 31.89 24.6418 30.8153 24.7667 30.286C25.4435 27.4165 25.6913 24.4102 25.8964 21.4749C25.9362 20.5917 25.6845 18.9424 24.4678 19.1449C23.7002 19.2721 23.4091 20.0948 23.2846 20.7704C22.6739 24.0847 22.6502 27.6049 21.1629 30.6899C21.1338 30.7502 21.1025 30.7598 21.0447 30.7687C20.9406 30.6457 20.9477 30.4056 20.9475 30.2511C20.9471 29.9195 20.9945 29.5841 21.0164 29.2531C21.0454 28.8137 21.0548 28.3721 21.0685 27.932C21.1629 24.8911 21.6613 10.6332 20.3025 8.74832C20.0997 8.467 19.8138 8.22788 19.4636 8.17664C19.1923 8.13697 18.8775 8.20888 18.6579 8.37701C18.1335 8.77857 17.7805 10.512 17.6946 11.1465C17.5949 11.8837 17.6207 12.6262 17.5766 13.3665C17.4226 15.9524 17.385 18.5428 17.296 21.1315C17.2599 22.18 17.2792 23.2162 17.1313 24.2577C16.6108 23.5163 16.0878 21.5547 15.9063 20.616C15.6778 19.4344 15.1749 14.7573 14.5495 14.1329C14.3736 13.9574 14.146 13.8661 13.8983 13.8739C13.6204 13.8827 13.3661 14.0257 13.1835 14.2324C12.642 14.8452 12.8137 16.7316 12.8521 17.5382C12.9221 19.0082 13.2027 20.4244 13.4911 21.8614C13.6445 22.6255 13.7844 23.4531 14.0562 24.1837C14.2187 24.6204 14.4786 25.106 14.7918 25.4521C15.1361 25.8329 15.5737 26.1517 16.0146 26.4077C16.3193 26.5847 16.6581 26.7461 16.9183 26.9887C17.1358 27.1916 17.161 27.5006 17.2036 27.7831C17.2877 28.3403 17.2551 28.9298 17.2881 29.4933C17.3921 31.1917 17.4661 32.8917 17.5102 34.5926C17.5617 36.0596 17.5914 37.5272 17.5992 38.9951C17.6032 39.3132 17.69 40.7983 17.5721 40.9365C17.3923 41.028 12.9526 40.9949 12.3909 40.9887C12.2644 40.9871 11.9044 41.007 11.8194 40.91C11.6196 40.6826 11.697 36.4803 11.7576 35.857C12.4175 34.8553 14.1369 34.8458 14.5688 32.9415C14.8712 31.6083 15.0392 30.466 15.1874 29.0663C15.2821 28.1715 15.4166 26.623 13.9321 27.0864C12.8454 27.5306 12.8916 29.145 12.6572 30.0875C12.5657 30.4558 12.1337 32.444 11.8541 32.5926C11.7514 32.5167 11.7102 32.3128 11.7052 32.1941C11.6659 31.2583 11.6651 30.2688 11.6579 29.3347C11.6236 27.1815 11.645 25.0277 11.7218 22.8756C11.8112 20.8531 12.0107 18.7886 12.0738 16.7716C12.1193 15.3151 11.9561 13.5938 11.8677 12.1251C11.7893 11.2398 11.8488 10.1721 11.5526 9.32665C11.1333 8.12996 9.92771 8.32597 9.65157 9.51589C9.34442 10.8396 9.35183 12.1912 9.25172 13.5332C8.94264 17.293 8.74851 21.0616 8.66974 24.8335C8.64856 25.8837 8.70076 29.7051 8.38411 30.4582L8.3173 30.4718C7.98179 30.2515 7.43789 26.3023 7.15543 25.6567C7.11411 25.5623 7.0611 25.12 7.0189 24.9816C6.6746 23.8519 6.69366 21.7541 5.39009 21.3273C4.97276 21.192 4.68906 21.2535 4.33276 21.4409C4.24901 21.5725 4.12734 21.7763 4.09806 21.9257C3.99772 22.4372 4.02407 23.3539 4.09347 23.8771C4.21456 24.7901 4.4875 25.7518 4.67768 26.6636C4.91698 27.811 5.15245 28.9986 5.44726 30.1294C5.553 30.5351 5.83419 31.2145 6.08572 31.5523C6.2999 31.84 6.67032 32.2373 6.96833 32.4415C7.488 32.7976 8.1682 33.0359 8.50671 33.6147C8.6091 33.7898 8.68351 34.3453 8.71005 34.5527C8.78555 35.1429 8.7847 35.891 8.81194 36.4724C8.8477 37.2363 9.15084 40.3548 9.00849 40.8886C8.90672 40.9743 8.51142 40.9723 8.36548 40.9727C6.20507 40.9813 4.04154 40.9832 1.88133 40.9832C1.37357 40.9828 0.865357 40.757 0.50246 40.4101C0.0393782 39.9674 0.00323145 39.2279 0.00265279 38.6248C0.00114828 37.0626 0.00512177 35.4961 0.00527608 33.9347L0.00577761 24.1756V18.1433C0.00616338 15.7623 -0.0885823 13.6729 0.474839 11.344C1.10207 8.76498 2.40255 6.40267 4.24095 4.50284C6.99772 1.66074 10.7611 0.0417346 14.7015 0.00264559Z" fill="#B68F73"/>
<path d="M329.864 57.6364C329.864 58.5682 329.694 59.3694 329.353 60.0398C329.012 60.7074 328.545 61.2216 327.951 61.5824C327.36 61.9404 326.688 62.1194 325.935 62.1194C325.18 62.1194 324.505 61.9404 323.911 61.5824C323.32 61.2216 322.854 60.706 322.513 60.0355C322.172 59.3651 322.002 58.5654 322.002 57.6364C322.002 56.7046 322.172 55.9049 322.513 55.2372C322.854 54.5668 323.32 54.0526 323.911 53.6946C324.505 53.3338 325.18 53.1534 325.935 53.1534C326.688 53.1534 327.36 53.3338 327.951 53.6946C328.545 54.0526 329.012 54.5668 329.353 55.2372C329.694 55.9049 329.864 56.7046 329.864 57.6364ZM328.56 57.6364C328.56 56.9262 328.445 56.3282 328.215 55.8424C327.988 55.3537 327.675 54.9844 327.278 54.7344C326.883 54.4816 326.435 54.3551 325.935 54.3551C325.432 54.3551 324.983 54.4816 324.589 54.7344C324.194 54.9844 323.881 55.3537 323.651 55.8424C323.424 56.3282 323.31 56.9262 323.31 57.6364C323.31 58.3466 323.424 58.9461 323.651 59.4347C323.881 59.9205 324.194 60.2898 324.589 60.5426C324.983 60.7926 325.432 60.9176 325.935 60.9176C326.435 60.9176 326.883 60.7926 327.278 60.5426C327.675 60.2898 327.988 59.9205 328.215 59.4347C328.445 58.9461 328.56 58.3466 328.56 57.6364Z" fill="#6B9979"/>
<path d="M319.201 56.0299C319.119 55.7713 319.008 55.5398 318.869 55.3353C318.732 55.1279 318.569 54.9517 318.379 54.8069C318.188 54.6591 317.971 54.5469 317.727 54.4702C317.485 54.3935 317.22 54.3551 316.93 54.3551C316.438 54.3551 315.995 54.4816 315.6 54.7344C315.205 54.9872 314.893 55.358 314.663 55.8466C314.436 56.3324 314.322 56.9276 314.322 57.6321C314.322 58.3395 314.437 58.9375 314.667 59.4262C314.897 59.9148 315.213 60.2855 315.613 60.5384C316.014 60.7912 316.47 60.9176 316.981 60.9176C317.455 60.9176 317.869 60.8211 318.221 60.6279C318.576 60.4347 318.85 60.162 319.044 59.8097C319.24 59.4546 319.338 59.037 319.338 58.5569L319.678 58.6208H317.181V57.5341H320.612V58.527C320.612 59.26 320.455 59.8963 320.143 60.4361C319.833 60.973 319.404 61.3878 318.856 61.6804C318.311 61.973 317.686 62.1194 316.981 62.1194C316.191 62.1194 315.498 61.9375 314.901 61.5739C314.308 61.2103 313.845 60.6946 313.512 60.027C313.18 59.3566 313.014 58.5611 313.014 57.6407C313.014 56.9446 313.11 56.3196 313.303 55.7657C313.497 55.2117 313.768 54.7415 314.117 54.3551C314.47 53.9659 314.883 53.6691 315.357 53.4645C315.835 53.2571 316.356 53.1534 316.921 53.1534C317.393 53.1534 317.832 53.223 318.238 53.3622C318.647 53.5015 319.011 53.6989 319.329 53.9546C319.65 54.2103 319.916 54.5142 320.126 54.8665C320.336 55.2159 320.478 55.6037 320.552 56.0299H319.201Z" fill="#6B9979"/>
<path d="M311.653 57.6364C311.653 58.5682 311.483 59.3694 311.142 60.0398C310.801 60.7074 310.334 61.2216 309.74 61.5824C309.149 61.9404 308.477 62.1194 307.724 62.1194C306.969 62.1194 306.294 61.9404 305.7 61.5824C305.109 61.2216 304.643 60.706 304.302 60.0355C303.961 59.3651 303.791 58.5654 303.791 57.6364C303.791 56.7046 303.961 55.9049 304.302 55.2372C304.643 54.5668 305.109 54.0526 305.7 53.6946C306.294 53.3338 306.969 53.1534 307.724 53.1534C308.477 53.1534 309.149 53.3338 309.74 53.6946C310.334 54.0526 310.801 54.5668 311.142 55.2372C311.483 55.9049 311.653 56.7046 311.653 57.6364ZM310.349 57.6364C310.349 56.9262 310.234 56.3282 310.004 55.8424C309.777 55.3537 309.464 54.9844 309.067 54.7344C308.672 54.4816 308.224 54.3551 307.724 54.3551C307.221 54.3551 306.773 54.4816 306.378 54.7344C305.983 54.9844 305.67 55.3537 305.44 55.8424C305.213 56.3282 305.099 56.9262 305.099 57.6364C305.099 58.3466 305.213 58.9461 305.44 59.4347C305.67 59.9205 305.983 60.2898 306.378 60.5426C306.773 60.7926 307.221 60.9176 307.724 60.9176C308.224 60.9176 308.672 60.7926 309.067 60.5426C309.464 60.2898 309.777 59.9205 310.004 59.4347C310.234 58.9461 310.349 58.3466 310.349 57.6364Z" fill="#6B9979"/>
<path d="M297.639 62V53.2727H298.955V60.8665H302.91V62H297.639Z" fill="#6B9979"/>
<path d="M295.997 57.6364C295.997 58.5682 295.827 59.3694 295.486 60.0398C295.145 60.7074 294.677 61.2216 294.084 61.5824C293.493 61.9404 292.821 62.1194 292.068 62.1194C291.312 62.1194 290.638 61.9404 290.044 61.5824C289.453 61.2216 288.987 60.706 288.646 60.0355C288.305 59.3651 288.135 58.5654 288.135 57.6364C288.135 56.7046 288.305 55.9049 288.646 55.2372C288.987 54.5668 289.453 54.0526 290.044 53.6946C290.638 53.3338 291.312 53.1534 292.068 53.1534C292.821 53.1534 293.493 53.3338 294.084 53.6946C294.677 54.0526 295.145 54.5668 295.486 55.2372C295.827 55.9049 295.997 56.7046 295.997 57.6364ZM294.693 57.6364C294.693 56.9262 294.578 56.3282 294.348 55.8424C294.121 55.3537 293.808 54.9844 293.41 54.7344C293.015 54.4816 292.568 54.3551 292.068 54.3551C291.565 54.3551 291.116 54.4816 290.721 54.7344C290.327 54.9844 290.014 55.3537 289.784 55.8424C289.557 56.3282 289.443 56.9262 289.443 57.6364C289.443 58.3466 289.557 58.9461 289.784 59.4347C290.014 59.9205 290.327 60.2898 290.721 60.5426C291.116 60.7926 291.565 60.9176 292.068 60.9176C292.568 60.9176 293.015 60.7926 293.41 60.5426C293.808 60.2898 294.121 59.9205 294.348 59.4347C294.578 58.9461 294.693 58.3466 294.693 57.6364ZM291.54 52.3992L292.537 50.4347H293.879L292.558 52.3992H291.54Z" fill="#6B9979"/>
<path d="M286.84 56.1108H285.511C285.46 55.8267 285.365 55.5767 285.225 55.3608C285.086 55.1449 284.916 54.9617 284.714 54.8111C284.512 54.6605 284.286 54.5469 284.036 54.4702C283.789 54.3935 283.526 54.3551 283.248 54.3551C282.745 54.3551 282.295 54.4816 281.897 54.7344C281.502 54.9872 281.19 55.358 280.96 55.8466C280.732 56.3353 280.619 56.9319 280.619 57.6364C280.619 58.3466 280.732 58.9461 280.96 59.4347C281.19 59.9233 281.504 60.2926 281.901 60.5426C282.299 60.7926 282.747 60.9176 283.244 60.9176C283.519 60.9176 283.781 60.8807 284.028 60.8069C284.278 60.7301 284.504 60.6179 284.705 60.4702C284.907 60.3225 285.078 60.1421 285.217 59.929C285.359 59.7131 285.457 59.4659 285.511 59.1875L286.84 59.1918C286.769 59.6208 286.632 60.0157 286.427 60.3765C286.225 60.7344 285.965 61.0441 285.647 61.3054C285.332 61.564 284.971 61.7642 284.565 61.9063C284.159 62.0483 283.715 62.1194 283.235 62.1194C282.48 62.1194 281.806 61.9404 281.215 61.5824C280.624 61.2216 280.159 60.706 279.818 60.0355C279.48 59.3651 279.311 58.5654 279.311 57.6364C279.311 56.7046 279.481 55.9049 279.822 55.2372C280.163 54.5668 280.629 54.0526 281.22 53.6946C281.811 53.3338 282.482 53.1534 283.235 53.1534C283.698 53.1534 284.13 53.2202 284.531 53.3537C284.934 53.4844 285.296 53.6776 285.617 53.9333C285.938 54.1861 286.204 54.4958 286.414 54.8622C286.624 55.2259 286.767 55.6421 286.84 56.1108Z" fill="#6B9979"/>
<path d="M277.674 53.2727V62H276.357V53.2727H277.674Z" fill="#6B9979"/>
<path d="M273.395 55.5654C273.349 55.162 273.162 54.8495 272.832 54.6279C272.503 54.4034 272.088 54.2912 271.588 54.2912C271.23 54.2912 270.92 54.348 270.659 54.4617C270.398 54.5725 270.194 54.7259 270.049 54.9219C269.907 55.1151 269.836 55.3353 269.836 55.5824C269.836 55.7898 269.885 55.9688 269.981 56.1194C270.081 56.2699 270.21 56.3963 270.369 56.4986C270.531 56.598 270.704 56.6819 270.889 56.75C271.074 56.8154 271.251 56.8694 271.422 56.912L272.274 57.1336C272.552 57.2017 272.838 57.2941 273.13 57.4105C273.423 57.527 273.694 57.6804 273.944 57.8708C274.194 58.0611 274.396 58.2969 274.549 58.5782C274.706 58.8594 274.784 59.1961 274.784 59.5881C274.784 60.0824 274.656 60.5213 274.4 60.9049C274.148 61.2884 273.78 61.5909 273.297 61.8125C272.817 62.0341 272.236 62.1449 271.554 62.1449C270.9 62.1449 270.335 62.0412 269.858 61.8338C269.38 61.6265 269.007 61.3324 268.737 60.9517C268.467 60.5682 268.318 60.1137 268.29 59.5881H269.611C269.636 59.9034 269.738 60.1662 269.917 60.3765C270.099 60.5838 270.331 60.7387 270.612 60.8409C270.896 60.9404 271.207 60.9901 271.545 60.9901C271.917 60.9901 272.248 60.9319 272.538 60.8154C272.831 60.6961 273.061 60.5313 273.228 60.3211C273.396 60.108 273.48 59.8594 273.48 59.5753C273.48 59.3168 273.406 59.1051 273.258 58.9404C273.113 58.7756 272.916 58.6392 272.666 58.5313C272.419 58.4233 272.139 58.3282 271.826 58.2458L270.795 57.9645C270.096 57.7742 269.542 57.4944 269.133 57.125C268.727 56.7557 268.524 56.2671 268.524 55.6591C268.524 55.1563 268.66 54.7174 268.933 54.3424C269.206 53.9674 269.575 53.6762 270.041 53.4688C270.507 53.2586 271.032 53.1534 271.618 53.1534C272.209 53.1534 272.73 53.2571 273.182 53.4645C273.636 53.6719 273.994 53.9574 274.255 54.3211C274.517 54.6819 274.653 55.0966 274.665 55.5654H273.395Z" fill="#6B9979"/>
<path d="M260.959 62V53.2727H264.07C264.749 53.2727 265.311 53.3963 265.757 53.6434C266.203 53.8906 266.537 54.2287 266.759 54.6576C266.98 55.0838 267.091 55.5639 267.091 56.098C267.091 56.6349 266.979 57.1179 266.754 57.5469C266.533 57.973 266.198 58.3111 265.749 58.5611C265.303 58.8082 264.742 58.9318 264.066 58.9318H261.926V57.8153H263.946C264.375 57.8153 264.723 57.7415 264.99 57.5937C265.257 57.4432 265.453 57.2386 265.578 56.9801C265.703 56.7216 265.766 56.4275 265.766 56.098C265.766 55.7684 265.703 55.4758 265.578 55.2201C265.453 54.9645 265.256 54.7642 264.986 54.6193C264.719 54.4744 264.367 54.402 263.929 54.402H262.276V62H260.959Z" fill="#6B9979"/>
<path d="M45.8045 30.2903V14.7689C45.8045 12.2763 45.3304 11.2823 44 9.70728H54.9338C60.8059 9.70728 64.2925 12.5669 64.2925 17.078C64.2925 20.3046 62.3045 22.7972 59.3379 23.9441L64.0325 31.5748C65.1029 33.3028 66.051 34.5109 67.045 35.3978H60.3624L54.1539 24.8616H51.0649V30.2903C51.0649 32.7829 51.4625 33.8839 52.7164 35.3978H44.1529C45.4069 33.8992 45.8045 32.7982 45.8045 30.2903ZM51.0802 13.1938V21.5586H53.9092C57.0288 21.5586 59.0167 20.0141 59.0167 17.2615C59.0167 14.6925 57.1052 13.1938 53.9857 13.1938H51.0802Z" fill="#1E1E1E"/>
<path d="M80.1192 35.8717C72.8555 35.8717 66.9834 30.443 66.9834 22.5524C66.9834 14.6617 72.932 9.23303 80.2721 9.23303C87.6123 9.23303 93.408 14.6617 93.408 22.5524C93.408 30.443 87.4594 35.8717 80.1192 35.8717ZM80.1192 32.2016C84.3398 32.2016 87.6123 28.8221 87.6123 22.5829C87.6123 16.3438 84.4163 12.9643 80.2721 12.9643C76.128 12.9643 72.7791 16.3438 72.7791 22.5829C72.7791 28.8221 76.0057 32.2016 80.1192 32.2016Z" fill="#1E1E1E"/>
<path d="M96.0381 22.7666C96.0381 15.1664 101.543 9.29431 109.434 9.29431C113.838 9.29431 115.092 10.8694 117.477 9.81424L118.578 17.1238C116.224 14.6312 113.624 13.0103 110.107 13.0103C105.412 13.0103 101.773 16.4968 101.773 22.8124C101.773 28.5775 105.519 32.2017 110.504 32.2017C111.942 32.2017 113.41 31.9876 114.755 31.4983V27.6141C114.755 25.1521 114.465 24.2346 113.394 22.8124H120.995C119.924 24.3569 119.71 25.565 119.71 28.0576V29.128C119.71 30.7796 120.001 31.9876 120.444 33.0886C117.508 34.6637 113.624 35.8106 109.831 35.8106C101.864 35.8106 96.0381 30.7031 96.0381 22.7818V22.7666Z" fill="#1E1E1E"/>
<path d="M124.818 30.2902V14.7994C124.818 12.3068 124.375 11.3128 123.014 9.69187H140.859L141.808 15.6405C139.238 13.7748 137.403 13.1479 134.804 13.1479H130.14V20.6715H131.791C133.84 20.6715 135.354 20.0904 136.929 19.3105L138.061 25.2132C135.706 24.2193 134.284 23.8217 131.745 23.8217H130.124V32.1864H135.232C137.618 32.1864 139.896 31.1618 142.419 29.4338L141.532 35.3824H123.075C124.39 33.8073 124.803 32.7828 124.803 30.2749L124.818 30.2902ZM134.177 2H139.651L133.81 7.61216H131.164L134.177 2Z" fill="#1E1E1E"/>
<path d="M146.288 30.2903V14.7689C146.288 12.2763 145.814 11.2823 144.483 9.70728H155.417C161.289 9.70728 164.776 12.5669 164.776 17.078C164.776 20.3046 162.788 22.7972 159.821 23.9441L164.516 31.5748C165.586 33.3028 166.534 34.5109 167.528 35.3978H160.846L154.637 24.8616H151.548V30.2903C151.548 32.7829 151.946 33.8839 153.2 35.3978H144.606C145.86 33.8992 146.257 32.7982 146.257 30.2903H146.288ZM151.564 13.1938V21.5586H154.393C157.512 21.5586 159.5 20.0141 159.5 17.2615C159.5 14.6925 157.589 13.1938 154.469 13.1938H151.564Z" fill="#1E1E1E"/>
<path d="M170.251 30.2902V14.7994C170.251 12.3068 169.853 11.2058 168.599 9.69189H177.3C176.016 11.1905 175.649 12.2915 175.649 14.7994V30.2902C175.649 32.7828 176.016 33.8838 177.3 35.3977H168.599C169.853 33.8991 170.251 32.7981 170.251 30.2902Z" fill="#1E1E1E"/>
<path d="M192.898 35.8717C185.634 35.8717 179.762 30.443 179.762 22.5524C179.762 14.6617 185.71 9.23303 193.05 9.23303C200.391 9.23303 206.186 14.6617 206.186 22.5524C206.186 30.443 200.238 35.8717 192.898 35.8717ZM192.898 32.2016C197.118 32.2016 200.391 28.8221 200.391 22.5829C200.391 16.3438 197.195 12.9643 193.05 12.9643C188.906 12.9643 185.557 16.3438 185.557 22.5829C185.557 28.8221 188.784 32.2016 192.898 32.2016Z" fill="#1E1E1E"/>
<path d="M217.671 30.2902V14.7994C217.671 12.3068 217.197 11.2823 215.867 9.69189H226.51C232.566 9.69189 236.266 12.842 236.266 17.5061C236.266 22.4301 232.26 25.5803 226.204 25.5803H223.054V30.2749C223.054 32.7675 223.452 33.8379 224.813 35.3824H216.004C217.258 33.8838 217.656 32.7828 217.656 30.2749L217.671 30.2902ZM223.069 13.1938V22.2619H225.669C228.895 22.2619 230.914 20.5339 230.914 17.7049C230.914 14.8759 228.926 13.1938 225.745 13.1938H223.069Z" fill="#1E1E1E"/>
<path d="M240.059 35.3978H232.795C233.712 34.1898 234.446 32.7217 235.762 29.9692L245.747 8.97327L255.733 29.9692C257.048 32.7217 257.782 34.1898 258.7 35.3978H250.075C251.023 33.8533 251.023 32.3853 250.105 30.3362L249.815 29.6786H240.196L239.906 30.3362C238.988 32.3853 239.065 33.8533 240.059 35.3978ZM248.316 26.2991L245.013 18.9589L241.71 26.2991H248.316Z" fill="#1E1E1E"/>
<path d="M259.586 25.825V14.8148C259.586 12.3222 259.189 11.2212 257.935 9.70728H266.636C265.382 11.2059 264.984 12.3069 264.984 14.8148V25.718C264.984 29.908 267.523 32.0336 270.856 32.0336C274.19 32.0336 276.805 29.9386 276.805 25.6415V14.8148C276.805 12.3222 276.361 11.2518 275.046 9.70728H282.57C281.255 11.2518 280.811 12.3069 280.811 14.8148V25.4274C280.811 32.2477 276.438 35.8872 270.199 35.8872C263.96 35.8872 259.586 32.2171 259.586 25.825Z" fill="#1E1E1E"/>
<path d="M286.439 30.2902V14.7994C286.439 12.3068 286.042 11.2058 284.788 9.69189H293.596C292.235 11.2364 291.837 12.2915 291.837 14.7994V32.0947H296.823C299.208 32.0947 301.594 31.1771 304.056 29.4491L303.215 35.3977H284.711C285.996 33.8532 286.439 32.7981 286.439 30.2902Z" fill="#1E1E1E"/>
<path d="M317.711 35.8717C310.447 35.8717 304.575 30.443 304.575 22.5524C304.575 14.6617 310.524 9.23303 317.864 9.23303C325.204 9.23303 331 14.6617 331 22.5524C331 30.443 325.051 35.8717 317.711 35.8717ZM317.711 32.2016C321.932 32.2016 325.204 28.8221 325.204 22.5829C325.204 16.3438 322.008 12.9643 317.864 12.9643C313.72 12.9643 310.371 16.3438 310.371 22.5829C310.371 28.8221 313.597 32.2016 317.711 32.2016Z" fill="#1E1E1E"/>
</svg>
