<svg width="887" height="187" viewBox="0 0 887 187" fill="none" xmlns="http://www.w3.org/2000/svg">
<path d="M50.4753 0.00903372C52.0013 -0.00902173 53.936 -0.00775873 55.4437 0.0869327C68.9846 1.07235 81.5809 7.41774 90.4608 17.7269C95.589 23.5852 100.043 32.4025 101.712 40.0061C103.398 47.6886 102.917 56.291 102.917 64.2086L102.916 93.2084L102.912 121.593C102.901 124.106 102.908 126.619 102.933 129.132C102.961 132.098 103.485 136.062 101.067 138.214C100.387 138.819 98.4864 139.699 97.548 139.782C94.0528 139.973 90.3895 140.028 86.8825 139.932C81.7018 139.79 76.055 140.221 70.9214 139.835C70.773 137.93 71.2623 118.234 72.032 117.498C73.0769 116.499 74.4296 115.956 75.6991 115.314C78.0185 114.121 80.0468 112.429 81.6393 110.358C82.7541 108.893 84.6036 105.223 85.0322 103.416C87.3562 93.6175 88.2067 83.3521 88.911 73.3288C89.0478 70.3132 88.1833 64.6813 84.006 65.3727C81.3707 65.807 80.3713 68.6164 79.9439 70.9232C77.847 82.2404 77.7658 94.2606 72.6592 104.795C72.5592 105.001 72.452 105.033 72.2534 105.064C71.8962 104.644 71.9204 103.824 71.9198 103.297C71.9183 102.164 72.0812 101.019 72.1562 99.8886C72.2558 98.3881 72.2883 96.8805 72.3351 95.3774C72.6592 84.9939 74.3704 36.3086 69.7052 29.8723C69.009 28.9117 68.0274 28.0952 66.825 27.9202C65.8936 27.7848 64.8128 28.0303 64.059 28.6044C62.2583 29.9756 61.0463 35.8947 60.7516 38.0613C60.4092 40.5783 60.4977 43.1139 60.3464 45.6417C59.8175 54.4717 59.6885 63.3168 59.3829 72.1565C59.2591 75.7367 59.3254 79.275 58.8174 82.831C57.0303 80.2995 55.2349 73.6015 54.6118 70.3962C53.8271 66.3613 52.1004 50.3908 49.9533 48.2588C49.3495 47.6593 48.568 47.3475 47.7174 47.3744C46.7633 47.4044 45.8903 47.8928 45.2633 48.5984C43.4044 50.691 43.9936 57.1324 44.1255 59.8864C44.3658 64.9061 45.3292 69.7419 46.3196 74.6488C46.846 77.2578 47.3264 80.0839 48.2597 82.5784C48.8174 84.0696 49.71 85.7277 50.7851 86.9097C51.9673 88.2099 53.4698 89.2984 54.9833 90.1726C56.0296 90.777 57.1927 91.328 58.086 92.1566C58.8331 92.8494 58.9193 93.9045 59.0656 94.8693C59.3544 96.7719 59.2425 98.7848 59.356 100.709C59.7128 106.508 59.9669 112.313 60.1183 118.121C60.2952 123.13 60.3971 128.142 60.424 133.154C60.4377 134.24 60.7355 139.311 60.3309 139.783C59.7136 140.096 44.4707 139.983 42.5423 139.961C42.1078 139.956 40.8717 140.024 40.5799 139.693C39.8938 138.916 40.1596 124.567 40.3678 122.439C42.6334 119.018 48.5366 118.986 50.0195 112.483C51.0578 107.931 51.6346 104.03 52.1433 99.2508C52.4685 96.1954 52.9303 90.9077 47.8337 92.4901C44.1026 94.007 44.2613 99.5194 43.4565 102.738C43.1421 103.996 41.659 110.784 40.6992 111.292C40.3465 111.033 40.2051 110.336 40.1878 109.931C40.0529 106.736 40.0502 103.357 40.0253 100.167C39.9078 92.8148 39.9811 85.4605 40.2449 78.1119C40.5519 71.2057 41.2368 64.1561 41.4533 57.2687C41.6095 52.2956 41.0494 46.4179 40.7457 41.4029C40.4764 38.3796 40.6808 34.7341 39.6639 31.8471C38.2243 27.7608 34.0851 28.4301 33.1371 32.4933C32.0825 37.0132 32.1079 41.6286 31.7642 46.2109C30.7031 59.0494 30.0366 71.9176 29.7661 84.7973C29.6934 88.3834 29.8726 101.432 28.7855 104.003L28.5561 104.05C27.4042 103.298 25.5368 89.8128 24.567 87.6084C24.4251 87.286 24.2431 85.7755 24.0982 85.3029C22.9161 81.4456 22.9816 74.2823 18.506 72.825C17.0731 72.363 16.0991 72.573 14.8758 73.2128C14.5883 73.6624 14.1705 74.3581 14.07 74.8681C13.7255 76.6149 13.816 79.7451 14.0542 81.5315C14.47 84.6491 15.4071 87.9329 16.06 91.0465C16.8816 94.9645 17.6901 99.0198 18.7023 102.881C19.0653 104.266 20.0307 106.586 20.8943 107.74C21.6297 108.722 22.9014 110.079 23.9246 110.776C25.7088 111.992 28.0441 112.806 29.2064 114.782C29.5579 115.38 29.8134 117.277 29.9045 117.985C30.1637 120 30.1608 122.554 30.2543 124.54C30.3771 127.148 31.4179 137.797 30.9291 139.62C30.5797 139.912 29.2225 139.906 28.7215 139.907C21.3041 139.936 13.876 139.943 6.45923 139.943C4.71594 139.941 2.97106 139.17 1.72511 137.986C0.135198 136.474 0.0110947 133.949 0.00910793 131.89C0.00394242 126.555 0.0175848 121.206 0.0181145 115.874L0.0198364 82.5507V61.9528C0.0211609 53.8225 -0.304132 46.6878 1.63028 38.7357C3.78377 29.9292 8.24875 21.8628 14.5606 15.3756C24.0255 5.67083 36.9463 0.142508 50.4753 0.00903372Z" fill="url(#paint0_linear_47_7742)"/>
<path d="M824.235 82.9039C824.235 88.2125 825.377 92.9499 827.662 97.1161C830.014 101.282 833.206 104.575 837.237 106.994C841.269 109.413 845.839 110.623 850.946 110.623C856.12 110.623 860.689 109.413 864.654 106.994C868.686 104.575 871.844 101.282 874.129 97.1161C876.481 92.9499 877.657 88.2125 877.657 82.9039C877.657 77.5953 876.481 72.8578 874.129 68.6916C871.844 64.5253 868.686 61.2327 864.654 58.8135C860.689 56.3944 856.12 55.1849 850.946 55.1849C845.839 55.1849 841.269 56.3944 837.237 58.8135C833.206 61.2327 830.014 64.5253 827.662 68.6916C825.377 72.8578 824.235 77.5953 824.235 82.9039ZM815.163 82.9039C815.163 77.7297 816.037 72.9586 817.784 68.5908C819.598 64.1557 822.118 60.3255 825.343 57.1C828.569 53.8073 832.366 51.2538 836.733 49.4395C841.101 47.558 845.839 46.6172 850.946 46.6172C856.12 46.6172 860.857 47.558 865.158 49.4395C869.526 51.2538 873.323 53.8073 876.548 57.1C879.774 60.3255 882.26 64.1557 884.007 68.5908C885.821 72.9586 886.728 77.7297 886.728 82.9039C886.728 88.0109 885.821 92.7819 884.007 97.2169C882.26 101.652 879.774 105.516 876.548 108.809C873.323 112.034 869.526 114.588 865.158 116.469C860.857 118.283 856.12 119.191 850.946 119.191C845.839 119.191 841.101 118.283 836.733 116.469C832.366 114.588 828.569 112.034 825.343 108.809C822.118 105.516 819.598 101.652 817.784 97.2169C816.037 92.7819 815.163 88.0109 815.163 82.9039Z" fill="#212121"/>
<path d="M776.869 47.625H785.437V110.119H813.156V118.182H776.869V47.625Z" fill="#212121"/>
<path d="M713.269 47.625H721.836V94.9993C721.836 99.8375 723.147 103.735 725.768 106.692C728.388 109.648 732.218 111.127 737.258 111.127C742.298 111.127 746.128 109.648 748.749 106.692C751.37 103.735 752.68 99.8375 752.68 94.9993V47.625H761.248V94.9993C761.248 98.4936 760.677 101.719 759.534 104.676C758.459 107.632 756.846 110.186 754.696 112.336C752.613 114.487 750.093 116.167 747.136 117.376C744.18 118.586 740.887 119.19 737.258 119.19C733.63 119.19 730.337 118.586 727.38 117.376C724.424 116.167 721.87 114.487 719.72 112.336C717.637 110.186 716.024 107.632 714.882 104.676C713.806 101.719 713.269 98.4936 713.269 94.9993V47.625Z" fill="#212121"/>
<path d="M653.984 97.0157L657.008 88.952H688.255L691.279 97.0157H653.984ZM672.43 63.5513L660.536 91.5727L659.73 93.3871L649.247 118.183H639.671L672.43 44.0977L705.189 118.183H695.613L685.332 93.9918L684.526 91.9759L672.43 63.5513Z" fill="#212121"/>
<path d="M599.097 47.625H607.665V118.182H599.097V47.625ZM603.835 55.6887V47.625H618.248C622.818 47.625 626.883 48.4986 630.445 50.2457C634.074 51.9256 636.929 54.3448 639.013 57.503C641.163 60.6613 642.238 64.4244 642.238 68.7922C642.238 73.0929 641.163 76.8559 639.013 80.0814C636.929 83.2397 634.074 85.6924 630.445 87.4396C626.883 89.1195 622.818 89.9595 618.248 89.9595H603.835V81.8958H618.248C622.818 81.8958 626.514 80.787 629.336 78.5695C632.226 76.352 633.67 73.0929 633.67 68.7922C633.67 64.4244 632.226 61.1653 629.336 59.015C626.514 56.7975 622.818 55.6887 618.248 55.6887H603.835Z" fill="#212121"/>
<path d="M494.284 82.9039C494.284 88.2125 495.427 92.9499 497.711 97.1161C500.063 101.282 503.255 104.575 507.287 106.994C511.319 109.413 515.888 110.623 520.995 110.623C526.17 110.623 530.739 109.413 534.704 106.994C538.736 104.575 541.894 101.282 544.179 97.1161C546.53 92.9499 547.706 88.2125 547.706 82.9039C547.706 77.5953 546.53 72.8578 544.179 68.6916C541.894 64.5253 538.736 61.2327 534.704 58.8135C530.739 56.3944 526.17 55.1849 520.995 55.1849C515.888 55.1849 511.319 56.3944 507.287 58.8135C503.255 61.2327 500.063 64.5253 497.711 68.6916C495.427 72.8578 494.284 77.5953 494.284 82.9039ZM485.213 82.9039C485.213 77.7297 486.086 72.9586 487.833 68.5908C489.648 64.1557 492.168 60.3255 495.393 57.1C498.619 53.8073 502.415 51.2538 506.783 49.4395C511.151 47.558 515.888 46.6172 520.995 46.6172C526.17 46.6172 530.907 47.558 535.208 49.4395C539.575 51.2538 543.372 53.8073 546.598 57.1C549.823 60.3255 552.309 64.1557 554.057 68.5908C555.871 72.9586 556.778 77.7297 556.778 82.9039C556.778 88.0109 555.871 92.7819 554.057 97.2169C552.309 101.652 549.823 105.516 546.598 108.809C543.372 112.034 539.575 114.588 535.208 116.469C530.907 118.283 526.17 119.191 520.995 119.191C515.888 119.191 511.151 118.283 506.783 116.469C502.415 114.588 498.619 112.034 495.393 108.809C492.168 105.516 489.648 101.652 487.833 97.2169C486.086 92.7819 485.213 88.0109 485.213 82.9039Z" fill="#212121"/>
<path d="M464.538 47.625H473.106V118.182H464.538V47.625Z" fill="#212121"/>
<path d="M420.735 83.4077H430.31L455.51 118.182H444.926L420.735 83.4077ZM408.135 47.625H416.703V118.182H408.135V47.625ZM412.873 55.1847V47.625H427.287C431.856 47.625 435.921 48.4986 439.483 50.2457C443.112 51.9256 445.967 54.3448 448.051 57.503C450.201 60.6613 451.276 64.4244 451.276 68.7922C451.276 73.0929 450.201 76.8559 448.051 80.0814C445.967 83.2397 443.112 85.6924 439.483 87.4396C435.921 89.1195 431.856 89.9595 427.287 89.9595H412.873V82.3997H427.287C430.31 82.3997 432.965 81.8622 435.249 80.787C437.601 79.7118 439.416 78.1663 440.692 76.1504C442.036 74.1344 442.708 71.6817 442.708 68.7922C442.708 65.9027 442.036 63.45 440.692 61.4341C439.416 59.4182 437.601 57.8726 435.249 56.7975C432.965 55.7223 430.31 55.1847 427.287 55.1847H412.873Z" fill="#212121"/>
<path d="M357.454 118.182V110.119H393.036V118.182H357.454ZM357.454 55.6887V47.625H393.036V55.6887H357.454ZM357.454 83.9117V75.848H391.02V83.9117H357.454ZM352.717 47.625H361.285V118.182H352.717V47.625ZM385.98 25.4498L367.836 40.5693L363.301 37.5454L378.42 21.418L385.98 25.4498Z" fill="#212121"/>
<path d="M307.319 90.4636V82.3999H340.078C340.078 87.3053 339.339 91.9755 337.86 96.4106C336.382 100.778 334.198 104.676 331.309 108.103C328.419 111.53 324.858 114.252 320.624 116.267C316.458 118.216 311.687 119.191 306.311 119.191C301.204 119.191 296.467 118.317 292.099 116.57C287.731 114.756 283.934 112.236 280.709 109.01C277.483 105.717 274.963 101.854 273.149 97.4185C271.402 92.9835 270.528 88.1453 270.528 82.9039C270.528 77.6625 271.402 72.8242 273.149 68.3892C274.963 63.9542 277.483 60.1239 280.709 56.8984C283.934 53.6057 287.731 51.0858 292.099 49.3387C296.467 47.5244 301.204 46.6172 306.311 46.6172C310.679 46.6172 314.677 47.1884 318.306 48.3307C322.002 49.4731 325.294 51.153 328.184 53.3705C331.141 55.5881 333.627 58.3432 335.643 61.6358L329.595 67.1796C327.377 63.4166 324.286 60.4935 320.322 58.4104C316.357 56.26 311.687 55.1849 306.311 55.1849C301.338 55.1849 296.836 56.3608 292.804 58.7127C288.772 61.0647 285.547 64.3237 283.128 68.49C280.776 72.589 279.6 77.3937 279.6 82.9039C279.6 88.3469 280.776 93.1515 283.128 97.3177C285.547 101.484 288.772 104.743 292.804 107.095C296.836 109.447 301.338 110.623 306.311 110.623C309.805 110.623 312.93 110.119 315.685 109.111C318.507 108.036 320.926 106.557 322.942 104.676C324.958 102.794 326.605 100.644 327.881 98.2249C329.225 95.8058 330.2 93.2187 330.805 90.4636H307.319Z" fill="#212121"/>
<path d="M199.967 82.9039C199.967 88.2125 201.109 92.9499 203.394 97.1161C205.746 101.282 208.938 104.575 212.97 106.994C217.002 109.413 221.571 110.623 226.678 110.623C231.852 110.623 236.422 109.413 240.386 106.994C244.418 104.575 247.576 101.282 249.861 97.1161C252.213 92.9499 253.389 88.2125 253.389 82.9039C253.389 77.5953 252.213 72.8578 249.861 68.6916C247.576 64.5253 244.418 61.2327 240.386 58.8135C236.422 56.3944 231.852 55.1849 226.678 55.1849C221.571 55.1849 217.002 56.3944 212.97 58.8135C208.938 61.2327 205.746 64.5253 203.394 68.6916C201.109 72.8578 199.967 77.5953 199.967 82.9039ZM190.895 82.9039C190.895 77.7297 191.769 72.9586 193.516 68.5908C195.33 64.1557 197.85 60.3255 201.076 57.1C204.301 53.8073 208.098 51.2538 212.466 49.4395C216.834 47.558 221.571 46.6172 226.678 46.6172C231.852 46.6172 236.59 47.558 240.89 49.4395C245.258 51.2538 249.055 53.8073 252.28 57.1C255.506 60.3255 257.992 64.1557 259.739 68.5908C261.554 72.9586 262.461 77.7297 262.461 82.9039C262.461 88.0109 261.554 92.7819 259.739 97.2169C257.992 101.652 255.506 105.516 252.28 108.809C249.055 112.034 245.258 114.588 240.89 116.469C236.59 118.283 231.852 119.191 226.678 119.191C221.571 119.191 216.834 118.283 212.466 116.469C208.098 114.588 204.301 112.034 201.076 108.809C197.85 105.516 195.33 101.652 193.516 97.2169C191.769 92.7819 190.895 88.0109 190.895 82.9039Z" fill="#212121"/>
<path d="M151.124 83.4077H160.7L185.899 118.182H175.316L151.124 83.4077ZM138.525 47.625H147.093V118.182H138.525V47.625ZM143.262 55.1847V47.625H157.676C162.246 47.625 166.311 48.4986 169.873 50.2457C173.501 51.9256 176.357 54.3448 178.44 57.503C180.591 60.6613 181.666 64.4244 181.666 68.7922C181.666 73.0929 180.591 76.8559 178.44 80.0814C176.357 83.2397 173.501 85.6924 169.873 87.4396C166.311 89.1195 162.246 89.9595 157.676 89.9595H143.262V82.3997H157.676C160.7 82.3997 163.354 81.8622 165.639 80.787C167.991 79.7118 169.805 78.1663 171.082 76.1504C172.426 74.1344 173.098 71.6817 173.098 68.7922C173.098 65.9027 172.426 63.45 171.082 61.4341C169.805 59.4182 167.991 57.8726 165.639 56.7975C163.354 55.7223 160.7 55.1847 157.676 55.1847H143.262Z" fill="#212121"/>
<rect width="33.5988" height="2.09992" transform="translate(415 168.839)" fill="#1A2A1B"/>
<path d="M875.07 185.68V183.933H886.729V185.68H875.07ZM875.07 163.908V162.161H886.729V163.908H875.07ZM875.07 173.652V171.905H886.057V173.652H875.07ZM874.095 162.161H875.943V185.68H874.095V162.161Z" fill="#1A2A1B"/>
<path d="M856.644 178.894C857.025 179.88 857.484 180.775 858.022 181.582C858.582 182.388 859.265 183.038 860.071 183.531C860.877 184.001 861.841 184.236 862.961 184.236C864.484 184.236 865.671 183.822 866.522 182.993C867.396 182.142 867.832 181.067 867.832 179.768C867.832 178.625 867.575 177.707 867.06 177.012C866.544 176.318 865.872 175.758 865.044 175.332C864.237 174.885 863.386 174.493 862.49 174.157C861.818 173.91 861.113 173.619 860.373 173.283C859.657 172.925 858.985 172.499 858.358 172.006C857.73 171.491 857.215 170.875 856.812 170.158C856.431 169.441 856.241 168.579 856.241 167.571C856.241 166.451 856.51 165.466 857.047 164.614C857.585 163.741 858.335 163.069 859.298 162.599C860.262 162.106 861.348 161.859 862.557 161.859C863.812 161.859 864.887 162.095 865.783 162.565C866.701 163.035 867.463 163.629 868.068 164.346C868.672 165.062 869.132 165.802 869.445 166.563L867.832 167.47C867.586 166.866 867.228 166.272 866.757 165.69C866.309 165.107 865.738 164.626 865.044 164.245C864.349 163.842 863.487 163.64 862.457 163.64C861.09 163.64 860.038 163.998 859.298 164.715C858.559 165.41 858.19 166.283 858.19 167.336C858.19 168.21 858.402 168.96 858.828 169.587C859.254 170.214 859.892 170.785 860.743 171.301C861.594 171.793 862.647 172.264 863.901 172.712C864.551 172.958 865.223 173.261 865.917 173.619C866.612 173.977 867.239 174.425 867.799 174.963C868.381 175.5 868.852 176.15 869.21 176.912C869.568 177.651 869.748 178.536 869.748 179.566C869.748 180.529 869.568 181.403 869.21 182.187C868.874 182.971 868.392 183.654 867.765 184.236C867.16 184.796 866.444 185.233 865.615 185.547C864.786 185.838 863.89 185.983 862.927 185.983C861.561 185.983 860.362 185.703 859.332 185.143C858.302 184.583 857.439 183.833 856.745 182.892C856.05 181.951 855.513 180.932 855.132 179.835L856.644 178.894Z" fill="#1A2A1B"/>
<path d="M849.06 162.161H850.908V185.68H849.06V162.161Z" fill="#1A2A1B"/>
<path d="M834.263 162.161H836.111V183.933H845.821V185.68H834.263V162.161Z" fill="#1A2A1B"/>
<path d="M814.751 177.785L815.355 176.038H826.241L826.846 177.785H814.751ZM820.765 165.521L816.195 176.642L815.994 177.046L812.466 185.68H810.383L820.765 161.254L831.147 185.68H829.064L825.569 177.18L825.401 176.743L820.765 165.521ZM825.2 154.098L819.253 159.238L818.279 158.566L823.587 153.19L825.2 154.098Z" fill="#1A2A1B"/>
<path d="M805.414 162.161H807.262V186.587L789.387 166.059V185.68H787.539V161.254L805.414 181.85V162.161Z" fill="#1A2A1B"/>
<path d="M768.061 177.785L768.666 176.037H779.518L780.123 177.785H768.061ZM774.041 165.521L769.472 176.642L769.27 177.045L765.743 185.68H763.659L774.041 161.254L784.423 185.68H782.34L778.846 177.18L778.678 176.743L774.041 165.521Z" fill="#1A2A1B"/>
<path d="M744.309 173.921C744.309 175.915 744.735 177.673 745.586 179.196C746.437 180.719 747.58 181.918 749.013 182.791C750.447 183.665 752.048 184.102 753.818 184.102C754.938 184.102 755.957 183.979 756.875 183.732C757.794 183.486 758.623 183.116 759.362 182.623C760.123 182.131 760.795 181.548 761.378 180.876V183.363C760.392 184.236 759.317 184.897 758.152 185.345C756.987 185.771 755.543 185.983 753.818 185.983C752.183 185.983 750.66 185.692 749.249 185.11C747.86 184.505 746.65 183.665 745.62 182.59C744.589 181.515 743.783 180.238 743.201 178.76C742.618 177.281 742.327 175.668 742.327 173.921C742.327 172.174 742.618 170.561 743.201 169.083C743.783 167.605 744.589 166.328 745.62 165.253C746.65 164.178 747.86 163.349 749.249 162.767C750.66 162.162 752.183 161.859 753.818 161.859C755.543 161.859 756.987 162.083 758.152 162.531C759.317 162.957 760.392 163.607 761.378 164.48V166.933C760.795 166.261 760.123 165.69 759.362 165.219C758.6 164.726 757.76 164.357 756.842 164.11C755.923 163.864 754.915 163.741 753.818 163.741C752.048 163.741 750.447 164.178 749.013 165.051C747.58 165.902 746.437 167.09 745.586 168.613C744.735 170.136 744.309 171.905 744.309 173.921Z" fill="#1A2A1B"/>
<path d="M736.254 162.161H738.102V185.68H736.254V162.161Z" fill="#1A2A1B"/>
<path d="M718.869 178.894C719.25 179.88 719.709 180.775 720.247 181.582C720.807 182.388 721.49 183.038 722.296 183.531C723.103 184.001 724.066 184.236 725.186 184.236C726.709 184.236 727.896 183.822 728.747 182.993C729.621 182.142 730.058 181.067 730.058 179.768C730.058 178.625 729.8 177.707 729.285 177.012C728.77 176.318 728.098 175.758 727.269 175.332C726.463 174.885 725.612 174.493 724.716 174.157C724.044 173.91 723.338 173.619 722.599 173.283C721.882 172.925 721.21 172.499 720.583 172.006C719.956 171.491 719.441 170.875 719.037 170.158C718.657 169.441 718.466 168.579 718.466 167.571C718.466 166.451 718.735 165.466 719.273 164.614C719.81 163.741 720.561 163.069 721.524 162.599C722.487 162.106 723.573 161.859 724.783 161.859C726.037 161.859 727.112 162.095 728.008 162.565C728.927 163.035 729.688 163.629 730.293 164.346C730.898 165.062 731.357 165.802 731.671 166.563L730.058 167.47C729.811 166.866 729.453 166.272 728.983 165.69C728.535 165.107 727.963 164.626 727.269 164.245C726.575 163.842 725.712 163.64 724.682 163.64C723.316 163.64 722.263 163.998 721.524 164.715C720.784 165.41 720.415 166.283 720.415 167.336C720.415 168.21 720.628 168.96 721.053 169.587C721.479 170.214 722.117 170.785 722.968 171.301C723.82 171.793 724.872 172.264 726.127 172.712C726.776 172.958 727.448 173.261 728.143 173.619C728.837 173.977 729.464 174.425 730.024 174.963C730.607 175.5 731.077 176.15 731.435 176.912C731.794 177.651 731.973 178.536 731.973 179.566C731.973 180.529 731.794 181.403 731.435 182.187C731.099 182.971 730.618 183.654 729.991 184.236C729.386 184.796 728.669 185.233 727.84 185.547C727.011 185.838 726.115 185.983 725.152 185.983C723.786 185.983 722.588 185.703 721.557 185.143C720.527 184.583 719.665 183.833 718.97 182.892C718.276 181.951 717.738 180.932 717.357 179.835L718.869 178.894Z" fill="#1A2A1B"/>
<path d="M701.18 162.161H703.028V185.68H701.18V162.161ZM702.221 163.908V162.161H706.69C708.168 162.161 709.479 162.441 710.621 163.001C711.786 163.561 712.704 164.356 713.376 165.387C714.048 166.417 714.384 167.66 714.384 169.116C714.384 170.55 714.048 171.793 713.376 172.846C712.704 173.898 711.786 174.705 710.621 175.265C709.479 175.802 708.168 176.071 706.69 176.071H702.221V174.324H706.69C708.415 174.324 709.815 173.876 710.89 172.98C711.965 172.084 712.503 170.796 712.503 169.116C712.503 167.414 711.965 166.126 710.89 165.252C709.815 164.356 708.415 163.908 706.69 163.908H702.221Z" fill="#1A2A1B"/>
<path d="M672.567 172.208C672.209 171.782 671.783 171.312 671.29 170.796C670.82 170.259 670.406 169.654 670.047 168.982C669.711 168.31 669.543 167.56 669.543 166.731C669.543 165.768 669.767 164.917 670.215 164.178C670.663 163.438 671.29 162.856 672.097 162.43C672.925 162.005 673.9 161.792 675.02 161.792C676.162 161.792 677.114 162.038 677.876 162.531C678.66 163.002 679.253 163.618 679.656 164.379C680.06 165.141 680.261 165.947 680.261 166.798C680.261 167.358 680.149 167.907 679.925 168.445C679.701 168.96 679.376 169.475 678.951 169.99C678.548 170.483 678.044 170.964 677.439 171.435C676.834 171.905 676.14 172.376 675.356 172.846C674.751 173.204 674.068 173.585 673.306 173.988C672.567 174.369 671.85 174.806 671.156 175.299C670.484 175.791 669.924 176.385 669.476 177.079C669.028 177.751 668.804 178.58 668.804 179.566C668.804 180.574 669.05 181.447 669.543 182.186C670.036 182.903 670.697 183.452 671.525 183.833C672.377 184.214 673.317 184.404 674.348 184.404C675.557 184.404 676.689 184.135 677.741 183.598C678.794 183.038 679.78 182.31 680.698 181.414C681.616 180.518 682.501 179.521 683.352 178.423C684.203 177.326 685.032 176.206 685.839 175.064L687.216 175.903C686.32 177.068 685.424 178.255 684.528 179.465C683.632 180.652 682.669 181.738 681.639 182.724C680.631 183.71 679.522 184.505 678.312 185.11C677.103 185.714 675.748 186.017 674.247 186.017C672.97 186.017 671.772 185.77 670.652 185.278C669.554 184.762 668.658 184.034 667.964 183.094C667.292 182.13 666.956 180.988 666.956 179.667C666.956 178.681 667.124 177.819 667.46 177.079C667.818 176.34 668.266 175.691 668.804 175.131C669.364 174.571 669.969 174.089 670.618 173.686C671.268 173.283 671.906 172.936 672.533 172.644C673.161 172.331 673.698 172.051 674.146 171.804C675.49 171.02 676.543 170.214 677.304 169.385C678.088 168.534 678.48 167.672 678.48 166.798C678.48 166.193 678.346 165.633 678.077 165.118C677.831 164.603 677.45 164.189 676.935 163.875C676.442 163.539 675.804 163.371 675.02 163.371C673.833 163.371 672.925 163.696 672.298 164.345C671.671 164.973 671.357 165.768 671.357 166.731C671.357 167.649 671.626 168.467 672.164 169.184C672.724 169.878 673.306 170.572 673.911 171.267L686.477 185.681H684.394L672.567 172.208Z" fill="#1A2A1B"/>
<path d="M638.883 177.785L639.487 176.037H650.34L650.945 177.785H638.883ZM644.863 165.521L640.294 176.642L640.092 177.045L636.564 185.68H634.481L644.863 161.254L655.245 185.68H653.162L649.668 177.18L649.5 176.743L644.863 165.521Z" fill="#1A2A1B"/>
<path d="M629.584 162.161H631.432V185.68H629.584V162.161Z" fill="#1A2A1B"/>
<path d="M614.717 175.702V173.955H625.167C625.167 175.545 624.92 177.068 624.428 178.524C623.935 179.958 623.207 181.235 622.244 182.355C621.28 183.475 620.116 184.359 618.749 185.009C617.383 185.659 615.837 185.983 614.113 185.983C612.433 185.983 610.876 185.692 609.442 185.11C608.031 184.505 606.788 183.665 605.713 182.59C604.66 181.515 603.843 180.238 603.26 178.76C602.678 177.281 602.387 175.668 602.387 173.921C602.387 172.174 602.678 170.561 603.26 169.083C603.843 167.605 604.66 166.328 605.713 165.253C606.788 164.178 608.031 163.349 609.442 162.767C610.876 162.162 612.433 161.859 614.113 161.859C615.569 161.859 616.89 162.061 618.077 162.464C619.287 162.867 620.362 163.45 621.303 164.211C622.244 164.95 623.05 165.846 623.722 166.899L622.378 168.075C621.594 166.776 620.496 165.723 619.085 164.917C617.674 164.11 616.017 163.707 614.113 163.707C612.276 163.707 610.618 164.144 609.14 165.018C607.662 165.891 606.486 167.09 605.612 168.613C604.761 170.136 604.335 171.905 604.335 173.921C604.335 175.915 604.761 177.684 605.612 179.23C606.486 180.753 607.651 181.951 609.106 182.825C610.585 183.699 612.254 184.135 614.113 184.135C615.434 184.135 616.621 183.911 617.674 183.463C618.727 183.015 619.634 182.399 620.396 181.615C621.18 180.831 621.807 179.936 622.277 178.928C622.748 177.92 623.039 176.844 623.151 175.702H614.717Z" fill="#1A2A1B"/>
<path d="M577.988 173.921C577.988 175.87 578.402 177.617 579.231 179.163C580.082 180.708 581.236 181.929 582.692 182.825C584.17 183.699 585.85 184.135 587.732 184.135C589.613 184.135 591.282 183.699 592.738 182.825C594.216 181.929 595.37 180.708 596.199 179.163C597.027 177.617 597.442 175.87 597.442 173.921C597.442 171.95 597.027 170.203 596.199 168.68C595.37 167.134 594.216 165.925 592.738 165.051C591.282 164.155 589.613 163.707 587.732 163.707C585.85 163.707 584.17 164.155 582.692 165.051C581.236 165.925 580.082 167.134 579.231 168.68C578.402 170.203 577.988 171.95 577.988 173.921ZM576.039 173.921C576.039 172.197 576.33 170.606 576.913 169.15C577.495 167.672 578.313 166.395 579.366 165.32C580.418 164.222 581.65 163.371 583.061 162.767C584.495 162.162 586.052 161.859 587.732 161.859C589.412 161.859 590.957 162.162 592.368 162.767C593.802 163.371 595.045 164.222 596.098 165.32C597.151 166.395 597.968 167.672 598.55 169.15C599.133 170.606 599.424 172.197 599.424 173.921C599.424 175.646 599.133 177.248 598.55 178.726C597.968 180.182 597.151 181.459 596.098 182.556C595.045 183.631 593.802 184.471 592.368 185.076C590.957 185.681 589.412 185.983 587.732 185.983C586.052 185.983 584.495 185.681 583.061 185.076C581.65 184.471 580.418 183.631 579.366 182.556C578.313 181.459 577.495 180.182 576.913 178.726C576.33 177.248 576.039 175.646 576.039 173.921Z" fill="#1A2A1B"/>
<path d="M563.537 162.161H565.385V183.933H575.095V185.68H563.537V162.161Z" fill="#1A2A1B"/>
<path d="M537.794 173.921C537.794 175.87 538.209 177.617 539.037 179.163C539.889 180.708 541.042 181.929 542.498 182.825C543.976 183.699 545.656 184.135 547.538 184.135C549.419 184.135 551.088 183.699 552.544 182.825C554.022 181.929 555.176 180.708 556.005 179.163C556.833 177.617 557.248 175.87 557.248 173.921C557.248 171.95 556.833 170.203 556.005 168.68C555.176 167.134 554.022 165.925 552.544 165.051C551.088 164.155 549.419 163.707 547.538 163.707C545.656 163.707 543.976 164.155 542.498 165.051C541.042 165.925 539.889 167.134 539.037 168.68C538.209 170.203 537.794 171.95 537.794 173.921ZM535.845 173.921C535.845 172.197 536.137 170.606 536.719 169.15C537.301 167.672 538.119 166.395 539.172 165.32C540.225 164.222 541.456 163.371 542.868 162.767C544.301 162.162 545.858 161.859 547.538 161.859C549.218 161.859 550.763 162.162 552.174 162.767C553.608 163.371 554.851 164.222 555.904 165.32C556.957 166.395 557.774 167.672 558.357 169.15C558.939 170.606 559.23 172.197 559.23 173.921C559.23 175.646 558.939 177.248 558.357 178.726C557.774 180.182 556.957 181.459 555.904 182.556C554.851 183.631 553.608 184.471 552.174 185.076C550.763 185.681 549.218 185.983 547.538 185.983C545.858 185.983 544.301 185.681 542.868 185.076C541.456 184.471 540.225 183.631 539.172 182.556C538.119 181.459 537.301 180.182 536.719 178.726C536.137 177.248 535.845 175.646 535.845 173.921Z" fill="#1A2A1B"/>
<path d="M514.827 173.921C514.827 175.915 515.253 177.673 516.104 179.196C516.955 180.719 518.097 181.918 519.531 182.791C520.964 183.665 522.566 184.102 524.336 184.102C525.455 184.102 526.475 183.979 527.393 183.732C528.311 183.486 529.14 183.116 529.879 182.623C530.641 182.131 531.313 181.548 531.895 180.876V183.363C530.91 184.236 529.835 184.897 528.67 185.345C527.505 185.771 526.06 185.983 524.336 185.983C522.7 185.983 521.177 185.692 519.766 185.11C518.377 184.505 517.168 183.665 516.137 182.59C515.107 181.515 514.301 180.238 513.718 178.76C513.136 177.281 512.845 175.668 512.845 173.921C512.845 172.174 513.136 170.561 513.718 169.083C514.301 167.605 515.107 166.328 516.137 165.253C517.168 164.178 518.377 163.349 519.766 162.767C521.177 162.162 522.7 161.859 524.336 161.859C526.06 161.859 527.505 162.083 528.67 162.531C529.835 162.957 530.91 163.607 531.895 164.48V166.933C531.313 166.261 530.641 165.69 529.879 165.219C529.118 164.726 528.278 164.357 527.359 164.11C526.441 163.864 525.433 163.741 524.336 163.741C522.566 163.741 520.964 164.178 519.531 165.051C518.097 165.902 516.955 167.09 516.104 168.613C515.253 170.136 514.827 171.905 514.827 173.921Z" fill="#1A2A1B"/>
<path d="M506.772 162.161H508.62V185.68H506.772V162.161Z" fill="#1A2A1B"/>
<path d="M489.387 178.894C489.768 179.88 490.227 180.775 490.765 181.582C491.325 182.388 492.008 183.038 492.814 183.531C493.621 184.001 494.584 184.236 495.704 184.236C497.227 184.236 498.414 183.822 499.265 182.993C500.139 182.142 500.576 181.067 500.576 179.768C500.576 178.625 500.318 177.707 499.803 177.012C499.288 176.318 498.616 175.758 497.787 175.332C496.981 174.885 496.129 174.493 495.233 174.157C494.561 173.91 493.856 173.619 493.117 173.283C492.4 172.925 491.728 172.499 491.101 172.006C490.474 171.491 489.958 170.875 489.555 170.158C489.174 169.441 488.984 168.579 488.984 167.571C488.984 166.451 489.253 165.466 489.79 164.614C490.328 163.741 491.078 163.069 492.041 162.599C493.005 162.106 494.091 161.859 495.301 161.859C496.555 161.859 497.63 162.095 498.526 162.565C499.444 163.035 500.206 163.629 500.811 164.346C501.416 165.062 501.875 165.802 502.188 166.563L500.576 167.47C500.329 166.866 499.971 166.272 499.5 165.69C499.052 165.107 498.481 164.626 497.787 164.245C497.093 163.842 496.23 163.64 495.2 163.64C493.833 163.64 492.781 163.998 492.041 164.715C491.302 165.41 490.933 166.283 490.933 167.336C490.933 168.21 491.146 168.96 491.571 169.587C491.997 170.214 492.635 170.785 493.486 171.301C494.337 171.793 495.39 172.264 496.645 172.712C497.294 172.958 497.966 173.261 498.66 173.619C499.355 173.977 499.982 174.425 500.542 174.963C501.124 175.5 501.595 176.15 501.953 176.912C502.312 177.651 502.491 178.536 502.491 179.566C502.491 180.529 502.312 181.403 501.953 182.187C501.617 182.971 501.136 183.654 500.508 184.236C499.904 184.796 499.187 185.233 498.358 185.547C497.529 185.838 496.633 185.983 495.67 185.983C494.304 185.983 493.105 185.703 492.075 185.143C491.045 184.583 490.182 183.833 489.488 182.892C488.794 181.951 488.256 180.932 487.875 179.835L489.387 178.894Z" fill="#1A2A1B"/>
<path d="M471.698 162.161H473.546V185.68H471.698V162.161ZM472.74 163.908V162.161H477.208C478.687 162.161 479.997 162.441 481.139 163.001C482.304 163.561 483.222 164.356 483.894 165.387C484.566 166.417 484.902 167.66 484.902 169.116C484.902 170.55 484.566 171.793 483.894 172.846C483.222 173.898 482.304 174.705 481.139 175.265C479.997 175.802 478.687 176.071 477.208 176.071H472.74V174.324H477.208C478.933 174.324 480.333 173.876 481.408 172.98C482.483 172.084 483.021 170.796 483.021 169.116C483.021 167.414 482.483 166.126 481.408 165.252C480.333 164.356 478.933 163.908 477.208 163.908H472.74Z" fill="#1A2A1B"/>
<defs>
<linearGradient id="paint0_linear_47_7742" x1="103.389" y1="1.71296e-07" x2="51.1504" y2="139.869" gradientUnits="userSpaceOnUse">
<stop stop-color="#A56835"/>
<stop offset="1" stop-color="#D8AA6F"/>
</linearGradient>
</defs>
</svg>
