<svg width="103" height="140" viewBox="0 0 103 140" fill="none" xmlns="http://www.w3.org/2000/svg">
<path d="M50.4753 0.00903372C52.0013 -0.00902173 53.936 -0.00775873 55.4437 0.0869327C68.9846 1.07235 81.5809 7.41774 90.4608 17.7269C95.589 23.5852 100.043 32.4025 101.712 40.0061C103.398 47.6886 102.917 56.291 102.917 64.2086L102.916 93.2084L102.912 121.593C102.901 124.106 102.908 126.619 102.933 129.132C102.961 132.098 103.485 136.062 101.067 138.214C100.387 138.819 98.4864 139.699 97.548 139.782C94.0528 139.973 90.3895 140.028 86.8825 139.932C81.7018 139.79 76.055 140.221 70.9214 139.835C70.773 137.93 71.2623 118.234 72.032 117.498C73.0769 116.499 74.4296 115.956 75.6991 115.314C78.0185 114.121 80.0468 112.429 81.6393 110.358C82.7541 108.893 84.6036 105.223 85.0322 103.416C87.3562 93.6175 88.2067 83.3521 88.911 73.3288C89.0478 70.3132 88.1833 64.6813 84.006 65.3727C81.3707 65.807 80.3713 68.6164 79.9439 70.9232C77.847 82.2404 77.7658 94.2606 72.6592 104.795C72.5592 105.001 72.452 105.033 72.2534 105.064C71.8962 104.644 71.9204 103.824 71.9198 103.297C71.9183 102.164 72.0812 101.019 72.1562 99.8886C72.2558 98.3881 72.2883 96.8805 72.3351 95.3774C72.6592 84.9939 74.3704 36.3086 69.7052 29.8723C69.009 28.9117 68.0274 28.0952 66.825 27.9202C65.8936 27.7848 64.8128 28.0303 64.059 28.6044C62.2583 29.9756 61.0463 35.8947 60.7516 38.0613C60.4092 40.5783 60.4977 43.1139 60.3464 45.6417C59.8175 54.4717 59.6885 63.3168 59.3829 72.1565C59.2591 75.7367 59.3254 79.275 58.8174 82.831C57.0303 80.2995 55.2349 73.6015 54.6118 70.3962C53.8271 66.3613 52.1004 50.3908 49.9533 48.2588C49.3495 47.6593 48.568 47.3475 47.7174 47.3744C46.7633 47.4044 45.8903 47.8928 45.2633 48.5984C43.4044 50.691 43.9936 57.1324 44.1255 59.8864C44.3658 64.9061 45.3292 69.7419 46.3196 74.6488C46.846 77.2578 47.3264 80.0839 48.2597 82.5784C48.8174 84.0696 49.71 85.7277 50.7851 86.9097C51.9673 88.2099 53.4698 89.2984 54.9833 90.1726C56.0296 90.777 57.1927 91.328 58.086 92.1566C58.8331 92.8494 58.9193 93.9045 59.0656 94.8693C59.3544 96.7719 59.2425 98.7848 59.356 100.709C59.7128 106.508 59.9669 112.313 60.1183 118.121C60.2952 123.13 60.3971 128.142 60.424 133.154C60.4377 134.24 60.7355 139.311 60.3309 139.783C59.7136 140.096 44.4707 139.983 42.5423 139.961C42.1078 139.956 40.8717 140.024 40.5799 139.693C39.8938 138.916 40.1596 124.567 40.3678 122.439C42.6334 119.018 48.5366 118.986 50.0195 112.483C51.0578 107.931 51.6346 104.03 52.1433 99.2508C52.4685 96.1954 52.9303 90.9077 47.8337 92.4901C44.1026 94.007 44.2613 99.5194 43.4565 102.738C43.1421 103.996 41.659 110.784 40.6992 111.292C40.3465 111.033 40.2051 110.336 40.1878 109.931C40.0529 106.736 40.0502 103.357 40.0253 100.167C39.9078 92.8148 39.9811 85.4605 40.2449 78.1119C40.5519 71.2057 41.2368 64.1561 41.4533 57.2687C41.6095 52.2956 41.0494 46.4179 40.7457 41.4029C40.4764 38.3796 40.6808 34.7341 39.6639 31.8471C38.2243 27.7608 34.0851 28.4301 33.1371 32.4933C32.0825 37.0132 32.1079 41.6286 31.7642 46.2109C30.7031 59.0494 30.0366 71.9176 29.7661 84.7973C29.6934 88.3834 29.8726 101.432 28.7855 104.003L28.5561 104.05C27.4042 103.298 25.5368 89.8128 24.567 87.6084C24.4251 87.286 24.2431 85.7755 24.0982 85.3029C22.9161 81.4456 22.9816 74.2823 18.506 72.825C17.0731 72.363 16.0991 72.573 14.8758 73.2128C14.5883 73.6624 14.1705 74.3581 14.07 74.8681C13.7255 76.6149 13.816 79.7451 14.0542 81.5315C14.47 84.6491 15.4071 87.9329 16.06 91.0465C16.8816 94.9645 17.6901 99.0198 18.7023 102.881C19.0653 104.266 20.0307 106.586 20.8943 107.74C21.6297 108.722 22.9014 110.079 23.9246 110.776C25.7088 111.992 28.0441 112.806 29.2064 114.782C29.5579 115.38 29.8134 117.277 29.9045 117.985C30.1637 120 30.1608 122.554 30.2543 124.54C30.3771 127.148 31.4179 137.797 30.9291 139.62C30.5797 139.912 29.2225 139.906 28.7215 139.907C21.3041 139.936 13.876 139.943 6.45923 139.943C4.71594 139.941 2.97106 139.17 1.72511 137.986C0.135198 136.474 0.0110947 133.949 0.00910793 131.89C0.00394242 126.555 0.0175848 121.206 0.0181145 115.874L0.0198364 82.5507V61.9528C0.0211609 53.8225 -0.304132 46.6878 1.63028 38.7357C3.78377 29.9292 8.24875 21.8628 14.5606 15.3756C24.0255 5.67083 36.9463 0.142508 50.4753 0.00903372Z" fill="url(#paint0_linear_47_7615)"/>
<defs>
<linearGradient id="paint0_linear_47_7615" x1="103.389" y1="1.71296e-07" x2="51.1504" y2="139.869" gradientUnits="userSpaceOnUse">
<stop stop-color="#A56835"/>
<stop offset="1" stop-color="#D8AA6F"/>
</linearGradient>
</defs>
</svg>
