<svg width="749" height="382" viewBox="0 0 749 382" fill="none" xmlns="http://www.w3.org/2000/svg">
<path d="M372.877 0.0107515C374.701 -0.0107372 377.012 -0.00923407 378.813 0.103463C394.991 1.27626 410.04 8.82824 420.649 21.0977C426.775 28.07 432.097 38.5639 434.09 47.6134C436.105 56.7567 435.53 66.9948 435.53 76.4181L435.529 110.932L435.524 144.714C435.511 147.705 435.52 150.696 435.55 153.687C435.583 157.217 436.209 161.934 433.32 164.496C432.508 165.216 430.237 166.264 429.116 166.362C424.94 166.59 420.563 166.654 416.374 166.541C410.184 166.371 403.438 166.884 397.305 166.425C397.127 164.157 397.712 140.717 398.631 139.841C399.88 138.652 401.496 138.005 403.013 137.241C405.784 135.821 408.207 133.807 410.109 131.342C411.441 129.599 413.651 125.231 414.163 123.08C416.939 111.419 417.956 99.2017 418.797 87.2724C418.96 83.6834 417.928 76.9806 412.937 77.8034C409.788 78.3204 408.595 81.664 408.084 84.4094C405.579 97.8786 405.482 112.184 399.381 124.722C399.261 124.967 399.133 125.006 398.896 125.042C398.469 124.542 398.498 123.567 398.497 122.939C398.496 121.591 398.69 120.228 398.78 118.883C398.899 117.097 398.938 115.303 398.994 113.514C399.381 101.156 401.425 43.2127 395.852 35.5526C395.02 34.4093 393.847 33.4376 392.411 33.2293C391.298 33.0681 390.007 33.3604 389.106 34.0436C386.955 35.6756 385.507 42.7202 385.155 45.2988C384.746 48.2944 384.851 51.3122 384.671 54.3206C384.039 64.8297 383.885 75.3566 383.519 85.8772C383.372 90.1383 383.451 94.3493 382.844 98.5815C380.709 95.5687 378.564 87.597 377.819 83.7822C376.882 78.9801 374.819 59.9727 372.254 57.4353C371.532 56.7219 370.599 56.3508 369.583 56.3827C368.443 56.4185 367.4 56.9997 366.651 57.8395C364.43 60.33 365.134 67.9963 365.291 71.2739C365.578 77.2482 366.729 83.0035 367.912 88.8434C368.541 91.9485 369.115 95.312 370.23 98.2809C370.897 100.056 371.963 102.029 373.247 103.436C374.66 104.983 376.455 106.279 378.263 107.319C379.513 108.038 380.903 108.694 381.97 109.68C382.863 110.505 382.966 111.761 383.14 112.909C383.485 115.173 383.352 117.569 383.487 119.859C383.914 126.761 384.217 133.67 384.398 140.582C384.609 146.544 384.731 152.508 384.763 158.474C384.78 159.766 385.135 165.802 384.652 166.363C383.914 166.735 365.704 166.601 363.4 166.575C362.881 166.569 361.404 166.65 361.055 166.256C360.236 165.332 360.553 148.254 360.802 145.721C363.509 141.65 370.561 141.611 372.333 133.872C373.573 128.454 374.262 123.812 374.87 118.124C375.259 114.487 375.81 108.194 369.721 110.077C365.264 111.883 365.453 118.443 364.492 122.274C364.116 123.771 362.344 131.85 361.198 132.454C360.776 132.146 360.607 131.317 360.587 130.835C360.426 127.032 360.422 123.01 360.393 119.214C360.252 110.464 360.34 101.711 360.655 92.965C361.022 84.7457 361.84 76.3556 362.099 68.1585C362.285 62.2398 361.616 55.2444 361.253 49.2758C360.932 45.6776 361.176 41.3389 359.961 37.9029C358.241 33.0396 353.296 33.8362 352.163 38.6719C350.903 44.0514 350.934 49.5443 350.523 54.998C349.255 70.2778 348.459 85.5929 348.136 100.922C348.049 105.19 348.263 120.72 346.964 123.78L346.69 123.835C345.314 122.94 343.083 106.891 341.924 104.267C341.755 103.884 341.538 102.086 341.364 101.523C339.952 96.9327 340.03 88.4073 334.683 86.6729C332.971 86.123 331.808 86.373 330.346 87.1344C330.003 87.6694 329.504 88.4975 329.384 89.1045C328.972 91.1834 329.08 94.9088 329.365 97.0349C329.861 100.745 330.981 104.654 331.761 108.359C332.743 113.022 333.709 117.849 334.918 122.444C335.352 124.093 336.505 126.854 337.537 128.226C338.415 129.396 339.935 131.01 341.157 131.84C343.289 133.287 346.079 134.256 347.467 136.608C347.887 137.32 348.192 139.577 348.301 140.42C348.611 142.818 348.607 145.859 348.719 148.222C348.866 151.326 350.109 163.999 349.525 166.169C349.108 166.517 347.486 166.509 346.888 166.51C338.026 166.545 329.152 166.553 320.291 166.553C318.208 166.552 316.124 165.634 314.635 164.224C312.735 162.425 312.587 159.42 312.585 156.969C312.579 150.62 312.595 144.254 312.596 137.908L312.598 98.248V73.7332C312.599 64.057 312.211 55.5656 314.522 46.1014C317.094 35.6203 322.429 26.02 329.97 18.2993C341.278 6.74915 356.714 0.169607 372.877 0.0107515Z" fill="url(#paint0_linear_47_7616)"/>
<path d="M685.71 278.505C685.71 283.814 686.852 288.551 689.137 292.717C691.489 296.884 694.681 300.176 698.713 302.596C702.744 305.015 707.314 306.224 712.421 306.224C717.595 306.224 722.165 305.015 726.129 302.596C730.161 300.176 733.319 296.884 735.604 292.717C737.956 288.551 739.132 283.814 739.132 278.505C739.132 273.197 737.956 268.459 735.604 264.293C733.319 260.127 730.161 256.834 726.129 254.415C722.165 251.996 717.595 250.786 712.421 250.786C707.314 250.786 702.744 251.996 698.713 254.415C694.681 256.834 691.489 260.127 689.137 264.293C686.852 268.459 685.71 273.197 685.71 278.505ZM676.638 278.505C676.638 273.331 677.512 268.56 679.259 264.192C681.073 259.757 683.593 255.927 686.819 252.701C690.044 249.409 693.841 246.855 698.209 245.041C702.576 243.159 707.314 242.219 712.421 242.219C717.595 242.219 722.332 243.159 726.633 245.041C731.001 246.855 734.798 249.409 738.023 252.701C741.249 255.927 743.735 259.757 745.482 264.192C747.296 268.56 748.204 273.331 748.204 278.505C748.204 283.612 747.296 288.383 745.482 292.818C743.735 297.253 741.249 301.117 738.023 304.41C734.798 307.635 731.001 310.189 726.633 312.07C722.332 313.885 717.595 314.792 712.421 314.792C707.314 314.792 702.576 313.885 698.209 312.07C693.841 310.189 690.044 307.635 686.819 304.41C683.593 301.117 681.073 297.253 679.259 292.818C677.512 288.383 676.638 283.612 676.638 278.505Z" fill="white"/>
<path d="M638.344 243.227H646.912V305.72H674.631V313.784H638.344V243.227Z" fill="white"/>
<path d="M574.744 243.227H583.312V290.601C583.312 295.439 584.622 299.337 587.243 302.293C589.863 305.25 593.694 306.728 598.733 306.728C603.773 306.728 607.603 305.25 610.224 302.293C612.845 299.337 614.155 295.439 614.155 290.601V243.227H622.723V290.601C622.723 294.095 622.152 297.321 621.009 300.277C619.934 303.234 618.321 305.787 616.171 307.938C614.088 310.088 611.568 311.768 608.611 312.978C605.655 314.187 602.362 314.792 598.733 314.792C595.105 314.792 591.812 314.187 588.855 312.978C585.899 311.768 583.345 310.088 581.195 307.938C579.112 305.787 577.499 303.234 576.357 300.277C575.281 297.321 574.744 294.095 574.744 290.601V243.227Z" fill="white"/>
<path d="M515.46 292.617L518.483 284.553H549.73L552.754 292.617H515.46ZM533.905 259.153L522.011 287.174L521.205 288.988L510.722 313.784H501.146L533.905 239.699L566.664 313.784H557.088L546.807 289.593L546.001 287.577L533.905 259.153Z" fill="white"/>
<path d="M460.572 243.227H469.14V313.784H460.572V243.227ZM465.31 251.29V243.227H479.724C484.293 243.227 488.358 244.1 491.92 245.847C495.549 247.527 498.405 249.946 500.488 253.105C502.638 256.263 503.713 260.026 503.713 264.394C503.713 268.694 502.638 272.457 500.488 275.683C498.405 278.841 495.549 281.294 491.92 283.041C488.358 284.721 484.293 285.561 479.724 285.561H465.31V277.497H479.724C484.293 277.497 487.989 276.389 490.811 274.171C493.701 271.954 495.145 268.694 495.145 264.394C495.145 260.026 493.701 256.767 490.811 254.617C487.989 252.399 484.293 251.29 479.724 251.29H465.31Z" fill="white"/>
<path d="M355.759 278.505C355.759 283.814 356.902 288.551 359.186 292.717C361.538 296.884 364.73 300.176 368.762 302.596C372.794 305.015 377.363 306.224 382.47 306.224C387.645 306.224 392.214 305.015 396.179 302.596C400.211 300.176 403.369 296.884 405.654 292.717C408.006 288.551 409.181 283.814 409.181 278.505C409.181 273.197 408.006 268.459 405.654 264.293C403.369 260.127 400.211 256.834 396.179 254.415C392.214 251.996 387.645 250.786 382.47 250.786C377.363 250.786 372.794 251.996 368.762 254.415C364.73 256.834 361.538 260.127 359.186 264.293C356.902 268.459 355.759 273.197 355.759 278.505ZM346.688 278.505C346.688 273.331 347.561 268.56 349.308 264.192C351.123 259.757 353.643 255.927 356.868 252.701C360.094 249.409 363.89 246.855 368.258 245.041C372.626 243.159 377.363 242.219 382.47 242.219C387.645 242.219 392.382 243.159 396.683 245.041C401.051 246.855 404.847 249.409 408.073 252.701C411.298 255.927 413.785 259.757 415.532 264.192C417.346 268.56 418.253 273.331 418.253 278.505C418.253 283.612 417.346 288.383 415.532 292.818C413.785 297.253 411.298 301.117 408.073 304.41C404.847 307.635 401.051 310.189 396.683 312.07C392.382 313.885 387.645 314.792 382.47 314.792C377.363 314.792 372.626 313.885 368.258 312.07C363.89 310.189 360.094 307.635 356.868 304.41C353.643 301.117 351.123 297.253 349.308 292.818C347.561 288.383 346.688 283.612 346.688 278.505Z" fill="white"/>
<path d="M326.013 243.227H334.581V313.784H326.013V243.227Z" fill="white"/>
<path d="M282.21 279.009H291.786L316.985 313.784H306.401L282.21 279.009ZM269.61 243.227H278.178V313.784H269.61V243.227ZM274.348 250.786V243.227H288.762C293.331 243.227 297.397 244.1 300.958 245.847C304.587 247.527 307.443 249.946 309.526 253.105C311.676 256.263 312.751 260.026 312.751 264.394C312.751 268.694 311.676 272.457 309.526 275.683C307.443 278.841 304.587 281.294 300.958 283.041C297.397 284.721 293.331 285.561 288.762 285.561H274.348V278.001H288.762C291.786 278.001 294.44 277.464 296.725 276.389C299.076 275.313 300.891 273.768 302.168 271.752C303.512 269.736 304.183 267.283 304.183 264.394C304.183 261.504 303.512 259.052 302.168 257.036C300.891 255.02 299.076 253.474 296.725 252.399C294.44 251.324 291.786 250.786 288.762 250.786H274.348Z" fill="white"/>
<path d="M218.93 313.784V305.72H254.511V313.784H218.93ZM218.93 251.29V243.227H254.511V251.29H218.93ZM218.93 279.513V271.45H252.495V279.513H218.93ZM214.192 243.227H222.76V313.784H214.192V243.227ZM247.455 221.051L229.312 236.171L224.776 233.147L239.895 217.02L247.455 221.051Z" fill="white"/>
<path d="M168.794 286.065V278.001H201.553C201.553 282.907 200.814 287.577 199.335 292.012C197.857 296.38 195.673 300.277 192.784 303.704C189.894 307.131 186.333 309.853 182.099 311.869C177.933 313.817 173.162 314.792 167.786 314.792C162.679 314.792 157.942 313.918 153.574 312.171C149.206 310.357 145.409 307.837 142.184 304.611C138.958 301.319 136.438 297.455 134.624 293.02C132.877 288.585 132.003 283.747 132.003 278.505C132.003 273.264 132.877 268.426 134.624 263.991C136.438 259.555 138.958 255.725 142.184 252.5C145.409 249.207 149.206 246.687 153.574 244.94C157.942 243.126 162.679 242.219 167.786 242.219C172.154 242.219 176.152 242.79 179.781 243.932C183.477 245.074 186.769 246.754 189.659 248.972C192.616 251.189 195.102 253.944 197.118 257.237L191.07 262.781C188.853 259.018 185.761 256.095 181.797 254.012C177.832 251.861 173.162 250.786 167.786 250.786C162.813 250.786 158.311 251.962 154.279 254.314C150.248 256.666 147.022 259.925 144.603 264.091C142.251 268.19 141.075 272.995 141.075 278.505C141.075 283.948 142.251 288.753 144.603 292.919C147.022 297.085 150.248 300.344 154.279 302.696C158.311 305.048 162.813 306.224 167.786 306.224C171.28 306.224 174.405 305.72 177.16 304.712C179.982 303.637 182.402 302.159 184.418 300.277C186.433 298.396 188.08 296.245 189.357 293.826C190.7 291.407 191.675 288.82 192.28 286.065H168.794Z" fill="white"/>
<path d="M61.442 278.505C61.442 283.814 62.5844 288.551 64.8691 292.717C67.221 296.884 70.4129 300.176 74.4448 302.596C78.4766 305.015 83.046 306.224 88.1531 306.224C93.3273 306.224 97.8967 305.015 101.861 302.596C105.893 300.176 109.052 296.884 111.336 292.717C113.688 288.551 114.864 283.814 114.864 278.505C114.864 273.197 113.688 268.459 111.336 264.293C109.052 260.127 105.893 256.834 101.861 254.415C97.8967 251.996 93.3273 250.786 88.1531 250.786C83.046 250.786 78.4766 251.996 74.4448 254.415C70.4129 256.834 67.221 260.127 64.8691 264.293C62.5844 268.459 61.442 273.197 61.442 278.505ZM52.3704 278.505C52.3704 273.331 53.2439 268.56 54.9911 264.192C56.8054 259.757 59.3253 255.927 62.5508 252.701C65.7763 249.409 69.5729 246.855 73.9408 245.041C78.3086 243.159 83.046 242.219 88.1531 242.219C93.3273 242.219 98.0647 243.159 102.365 245.041C106.733 246.855 110.53 249.409 113.755 252.701C116.981 255.927 119.467 259.757 121.214 264.192C123.029 268.56 123.936 273.331 123.936 278.505C123.936 283.612 123.029 288.383 121.214 292.818C119.467 297.253 116.981 301.117 113.755 304.41C110.53 307.635 106.733 310.189 102.365 312.07C98.0647 313.885 93.3273 314.792 88.1531 314.792C83.046 314.792 78.3086 313.885 73.9408 312.07C69.5729 310.189 65.7763 307.635 62.5508 304.41C59.3253 301.117 56.8054 297.253 54.9911 292.818C53.2439 288.383 52.3704 283.612 52.3704 278.505Z" fill="white"/>
<path d="M12.5995 279.009H22.1752L47.3743 313.784H36.7907L12.5995 279.009ZM0 243.227H8.56769V313.784H0V243.227ZM4.73743 250.786V243.227H19.1513C23.7207 243.227 27.7862 244.1 31.3477 245.847C34.9763 247.527 37.8322 249.946 39.9153 253.105C42.0657 256.263 43.1408 260.026 43.1408 264.394C43.1408 268.694 42.0657 272.457 39.9153 275.683C37.8322 278.841 34.9763 281.294 31.3477 283.041C27.7862 284.721 23.7207 285.561 19.1513 285.561H4.73743V278.001H19.1513C22.1752 278.001 24.8295 277.464 27.1142 276.389C29.4661 275.313 31.2805 273.768 32.5572 271.752C33.9012 269.736 34.5731 267.283 34.5731 264.394C34.5731 261.504 33.9012 259.052 32.5572 257.036C31.2805 255.02 29.4661 253.474 27.1142 252.399C24.8295 251.324 22.1752 250.786 19.1513 250.786H4.73743Z" fill="white"/>
<rect width="33.5988" height="2.09992" transform="translate(109.888 364.04)" fill="#ADF5C3"/>
<path d="M569.958 380.881V379.134H581.617V380.881H569.958ZM569.958 359.109V357.362H581.617V359.109H569.958ZM569.958 368.852V367.105H580.945V368.852H569.958ZM568.984 357.362H570.832V380.881H568.984V357.362Z" fill="#ADF5C3"/>
<path d="M551.532 374.094C551.913 375.079 552.372 375.975 552.91 376.782C553.47 377.588 554.153 378.238 554.96 378.731C555.766 379.201 556.729 379.436 557.849 379.436C559.372 379.436 560.559 379.022 561.411 378.193C562.284 377.342 562.721 376.267 562.721 374.967C562.721 373.825 562.463 372.907 561.948 372.212C561.433 371.518 560.761 370.958 559.932 370.532C559.126 370.084 558.275 369.692 557.379 369.356C556.707 369.11 556.001 368.819 555.262 368.483C554.545 368.125 553.873 367.699 553.246 367.206C552.619 366.691 552.104 366.075 551.7 365.358C551.32 364.641 551.129 363.779 551.129 362.771C551.129 361.651 551.398 360.666 551.936 359.814C552.473 358.941 553.224 358.269 554.187 357.798C555.15 357.306 556.236 357.059 557.446 357.059C558.7 357.059 559.775 357.295 560.671 357.765C561.59 358.235 562.351 358.829 562.956 359.546C563.561 360.262 564.02 361.002 564.334 361.763L562.721 362.67C562.474 362.066 562.116 361.472 561.646 360.89C561.198 360.307 560.627 359.826 559.932 359.445C559.238 359.042 558.375 358.84 557.345 358.84C555.979 358.84 554.926 359.198 554.187 359.915C553.448 360.61 553.078 361.483 553.078 362.536C553.078 363.409 553.291 364.16 553.716 364.787C554.142 365.414 554.78 365.985 555.632 366.501C556.483 366.993 557.535 367.464 558.79 367.912C559.439 368.158 560.111 368.461 560.806 368.819C561.5 369.177 562.127 369.625 562.687 370.163C563.27 370.7 563.74 371.35 564.098 372.112C564.457 372.851 564.636 373.736 564.636 374.766C564.636 375.729 564.457 376.603 564.098 377.387C563.762 378.171 563.281 378.854 562.654 379.436C562.049 379.996 561.332 380.433 560.503 380.746C559.675 381.038 558.779 381.183 557.815 381.183C556.449 381.183 555.251 380.903 554.22 380.343C553.19 379.783 552.328 379.033 551.633 378.092C550.939 377.151 550.401 376.132 550.021 375.035L551.532 374.094Z" fill="#ADF5C3"/>
<path d="M543.948 357.362H545.796V380.881H543.948V357.362Z" fill="#ADF5C3"/>
<path d="M529.151 357.362H530.999V379.134H540.709V380.881H529.151V357.362Z" fill="#ADF5C3"/>
<path d="M509.639 372.985L510.244 371.238H521.13L521.735 372.985H509.639ZM515.653 360.722L511.084 371.843L510.882 372.246L507.354 380.881H505.271L515.653 356.455L526.035 380.881H523.952L520.458 372.38L520.29 371.944L515.653 360.722ZM520.088 349.298L514.141 354.439L513.167 353.767L518.476 348.391L520.088 349.298Z" fill="#ADF5C3"/>
<path d="M500.302 357.362H502.15V381.788L484.276 361.259V380.881H482.428V356.455L500.302 377.051V357.362Z" fill="#ADF5C3"/>
<path d="M462.949 372.985L463.554 371.238H474.406L475.011 372.985H462.949ZM468.93 360.722L464.36 371.843L464.159 372.246L460.631 380.881H458.548L468.93 356.455L479.312 380.881H477.229L473.735 372.38L473.567 371.944L468.93 360.722Z" fill="#ADF5C3"/>
<path d="M439.198 369.121C439.198 371.115 439.623 372.873 440.474 374.396C441.326 375.919 442.468 377.118 443.902 377.991C445.335 378.865 446.937 379.302 448.706 379.302C449.826 379.302 450.845 379.179 451.764 378.932C452.682 378.686 453.511 378.316 454.25 377.823C455.011 377.331 455.683 376.748 456.266 376.076V378.563C455.28 379.436 454.205 380.097 453.04 380.545C451.876 380.97 450.431 381.183 448.706 381.183C447.071 381.183 445.548 380.892 444.137 380.31C442.748 379.705 441.538 378.865 440.508 377.79C439.478 376.715 438.671 375.438 438.089 373.96C437.507 372.481 437.215 370.868 437.215 369.121C437.215 367.374 437.507 365.761 438.089 364.283C438.671 362.805 439.478 361.528 440.508 360.453C441.538 359.378 442.748 358.549 444.137 357.966C445.548 357.362 447.071 357.059 448.706 357.059C450.431 357.059 451.876 357.283 453.04 357.731C454.205 358.157 455.28 358.806 456.266 359.68V362.133C455.683 361.461 455.011 360.89 454.25 360.419C453.488 359.926 452.648 359.557 451.73 359.31C450.812 359.064 449.804 358.941 448.706 358.941C446.937 358.941 445.335 359.378 443.902 360.251C442.468 361.102 441.326 362.29 440.474 363.813C439.623 365.336 439.198 367.105 439.198 369.121Z" fill="#ADF5C3"/>
<path d="M431.143 357.362H432.991V380.881H431.143V357.362Z" fill="#ADF5C3"/>
<path d="M413.758 374.094C414.139 375.079 414.598 375.975 415.135 376.782C415.695 377.588 416.378 378.238 417.185 378.731C417.991 379.201 418.954 379.436 420.074 379.436C421.598 379.436 422.785 379.022 423.636 378.193C424.509 377.342 424.946 376.267 424.946 374.967C424.946 373.825 424.689 372.907 424.173 372.212C423.658 371.518 422.986 370.958 422.157 370.532C421.351 370.084 420.5 369.692 419.604 369.356C418.932 369.11 418.226 368.819 417.487 368.483C416.77 368.125 416.098 367.699 415.471 367.206C414.844 366.691 414.329 366.075 413.926 365.358C413.545 364.641 413.355 363.779 413.355 362.771C413.355 361.651 413.623 360.666 414.161 359.814C414.699 358.941 415.449 358.269 416.412 357.798C417.375 357.306 418.462 357.059 419.671 357.059C420.926 357.059 422.001 357.295 422.897 357.765C423.815 358.235 424.577 358.829 425.181 359.546C425.786 360.262 426.245 361.002 426.559 361.763L424.946 362.67C424.7 362.066 424.341 361.472 423.871 360.89C423.423 360.307 422.852 359.826 422.157 359.445C421.463 359.042 420.601 358.84 419.57 358.84C418.204 358.84 417.151 359.198 416.412 359.915C415.673 360.61 415.303 361.483 415.303 362.536C415.303 363.409 415.516 364.16 415.942 364.787C416.367 365.414 417.006 365.985 417.857 366.501C418.708 366.993 419.761 367.464 421.015 367.912C421.665 368.158 422.337 368.461 423.031 368.819C423.725 369.177 424.353 369.625 424.913 370.163C425.495 370.7 425.965 371.35 426.324 372.112C426.682 372.851 426.861 373.736 426.861 374.766C426.861 375.729 426.682 376.603 426.324 377.387C425.988 378.171 425.506 378.854 424.879 379.436C424.274 379.996 423.557 380.433 422.729 380.746C421.9 381.038 421.004 381.183 420.041 381.183C418.674 381.183 417.476 380.903 416.446 380.343C415.415 379.783 414.553 379.033 413.859 378.092C413.164 377.151 412.627 376.132 412.246 375.035L413.758 374.094Z" fill="#ADF5C3"/>
<path d="M396.068 357.362H397.916V380.881H396.068V357.362ZM397.11 359.109V357.362H401.579C403.057 357.362 404.367 357.642 405.51 358.202C406.674 358.762 407.593 359.557 408.265 360.587C408.937 361.617 409.273 362.861 409.273 364.317C409.273 365.75 408.937 366.993 408.265 368.046C407.593 369.099 406.674 369.905 405.51 370.465C404.367 371.003 403.057 371.271 401.579 371.271H397.11V369.524H401.579C403.303 369.524 404.703 369.076 405.778 368.18C406.854 367.284 407.391 365.996 407.391 364.317C407.391 362.614 406.854 361.326 405.778 360.453C404.703 359.557 403.303 359.109 401.579 359.109H397.11Z" fill="#ADF5C3"/>
<path d="M367.456 367.408C367.097 366.982 366.672 366.512 366.179 365.997C365.709 365.459 365.294 364.854 364.936 364.182C364.6 363.51 364.432 362.76 364.432 361.931C364.432 360.968 364.656 360.117 365.104 359.378C365.552 358.639 366.179 358.056 366.985 357.631C367.814 357.205 368.788 356.992 369.908 356.992C371.051 356.992 372.003 357.239 372.764 357.731C373.548 358.202 374.142 358.818 374.545 359.579C374.948 360.341 375.15 361.147 375.15 361.998C375.15 362.558 375.038 363.107 374.814 363.645C374.59 364.16 374.265 364.675 373.839 365.19C373.436 365.683 372.932 366.165 372.328 366.635C371.723 367.105 371.028 367.576 370.244 368.046C369.64 368.405 368.956 368.785 368.195 369.189C367.456 369.569 366.739 370.006 366.045 370.499C365.373 370.992 364.813 371.585 364.365 372.28C363.917 372.952 363.693 373.78 363.693 374.766C363.693 375.774 363.939 376.647 364.432 377.387C364.925 378.103 365.585 378.652 366.414 379.033C367.265 379.414 368.206 379.604 369.236 379.604C370.446 379.604 371.577 379.335 372.63 378.798C373.683 378.238 374.668 377.51 375.587 376.614C376.505 375.718 377.39 374.721 378.241 373.624C379.092 372.526 379.921 371.406 380.727 370.264L382.105 371.104C381.209 372.268 380.313 373.456 379.417 374.665C378.521 375.852 377.558 376.939 376.527 377.924C375.519 378.91 374.411 379.705 373.201 380.31C371.992 380.915 370.636 381.217 369.136 381.217C367.859 381.217 366.661 380.971 365.541 380.478C364.443 379.963 363.547 379.235 362.853 378.294C362.181 377.331 361.845 376.188 361.845 374.867C361.845 373.881 362.013 373.019 362.349 372.28C362.707 371.54 363.155 370.891 363.693 370.331C364.253 369.771 364.857 369.289 365.507 368.886C366.157 368.483 366.795 368.136 367.422 367.845C368.049 367.531 368.587 367.251 369.035 367.005C370.379 366.221 371.432 365.414 372.193 364.586C372.977 363.734 373.369 362.872 373.369 361.998C373.369 361.394 373.235 360.834 372.966 360.318C372.72 359.803 372.339 359.389 371.824 359.075C371.331 358.739 370.692 358.571 369.908 358.571C368.721 358.571 367.814 358.896 367.187 359.546C366.56 360.173 366.246 360.968 366.246 361.931C366.246 362.85 366.515 363.667 367.053 364.384C367.613 365.078 368.195 365.773 368.8 366.467L381.366 380.881H379.282L367.456 367.408Z" fill="#ADF5C3"/>
<path d="M333.771 372.985L334.376 371.238H345.228L345.833 372.985H333.771ZM339.752 360.722L335.182 371.843L334.981 372.246L331.453 380.881H329.37L339.752 356.455L350.134 380.881H348.051L344.556 372.38L344.388 371.944L339.752 360.722Z" fill="#ADF5C3"/>
<path d="M324.473 357.362H326.321V380.881H324.473V357.362Z" fill="#ADF5C3"/>
<path d="M309.606 370.902V369.155H320.055C320.055 370.745 319.809 372.268 319.316 373.724C318.823 375.158 318.095 376.435 317.132 377.555C316.169 378.675 315.004 379.559 313.638 380.209C312.271 380.858 310.726 381.183 309.001 381.183C307.321 381.183 305.764 380.892 304.331 380.31C302.92 379.705 301.677 378.865 300.601 377.79C299.549 376.715 298.731 375.438 298.149 373.96C297.566 372.481 297.275 370.868 297.275 369.121C297.275 367.374 297.566 365.761 298.149 364.283C298.731 362.805 299.549 361.528 300.601 360.453C301.677 359.378 302.92 358.549 304.331 357.966C305.764 357.362 307.321 357.059 309.001 357.059C310.457 357.059 311.779 357.261 312.966 357.664C314.175 358.067 315.25 358.65 316.191 359.411C317.132 360.15 317.938 361.046 318.61 362.099L317.266 363.275C316.482 361.976 315.385 360.923 313.974 360.117C312.563 359.31 310.905 358.907 309.001 358.907C307.164 358.907 305.507 359.344 304.028 360.218C302.55 361.091 301.374 362.29 300.501 363.813C299.649 365.336 299.224 367.105 299.224 369.121C299.224 371.115 299.649 372.884 300.501 374.43C301.374 375.953 302.539 377.151 303.995 378.025C305.473 378.899 307.142 379.335 309.001 379.335C310.323 379.335 311.51 379.111 312.563 378.663C313.615 378.215 314.523 377.599 315.284 376.815C316.068 376.031 316.695 375.135 317.166 374.128C317.636 373.12 317.927 372.044 318.039 370.902H309.606Z" fill="#ADF5C3"/>
<path d="M272.876 369.121C272.876 371.07 273.291 372.817 274.12 374.363C274.971 375.908 276.124 377.129 277.58 378.025C279.059 378.899 280.739 379.335 282.62 379.335C284.502 379.335 286.17 378.899 287.626 378.025C289.105 377.129 290.258 375.908 291.087 374.363C291.916 372.817 292.33 371.07 292.33 369.121C292.33 367.15 291.916 365.403 291.087 363.88C290.258 362.334 289.105 361.125 287.626 360.251C286.17 359.355 284.502 358.907 282.62 358.907C280.739 358.907 279.059 359.355 277.58 360.251C276.124 361.125 274.971 362.334 274.12 363.88C273.291 365.403 272.876 367.15 272.876 369.121ZM270.928 369.121C270.928 367.397 271.219 365.806 271.801 364.35C272.384 362.872 273.201 361.595 274.254 360.52C275.307 359.422 276.539 358.571 277.95 357.966C279.383 357.362 280.94 357.059 282.62 357.059C284.3 357.059 285.846 357.362 287.257 357.966C288.69 358.571 289.933 359.422 290.986 360.52C292.039 361.595 292.857 362.872 293.439 364.35C294.021 365.806 294.312 367.397 294.312 369.121C294.312 370.846 294.021 372.448 293.439 373.926C292.857 375.382 292.039 376.659 290.986 377.756C289.933 378.831 288.69 379.671 287.257 380.276C285.846 380.881 284.3 381.183 282.62 381.183C280.94 381.183 279.383 380.881 277.95 380.276C276.539 379.671 275.307 378.831 274.254 377.756C273.201 376.659 272.384 375.382 271.801 373.926C271.219 372.448 270.928 370.846 270.928 369.121Z" fill="#ADF5C3"/>
<path d="M258.425 357.362H260.273V379.134H269.983V380.881H258.425V357.362Z" fill="#ADF5C3"/>
<path d="M232.683 369.121C232.683 371.07 233.097 372.817 233.926 374.363C234.777 375.908 235.93 377.129 237.386 378.025C238.865 378.899 240.545 379.335 242.426 379.335C244.308 379.335 245.977 378.899 247.432 378.025C248.911 377.129 250.064 375.908 250.893 374.363C251.722 372.817 252.136 371.07 252.136 369.121C252.136 367.15 251.722 365.403 250.893 363.88C250.064 362.334 248.911 361.125 247.432 360.251C245.977 359.355 244.308 358.907 242.426 358.907C240.545 358.907 238.865 359.355 237.386 360.251C235.93 361.125 234.777 362.334 233.926 363.88C233.097 365.403 232.683 367.15 232.683 369.121ZM230.734 369.121C230.734 367.397 231.025 365.806 231.607 364.35C232.19 362.872 233.007 361.595 234.06 360.52C235.113 359.422 236.345 358.571 237.756 357.966C239.19 357.362 240.746 357.059 242.426 357.059C244.106 357.059 245.652 357.362 247.063 357.966C248.496 358.571 249.74 359.422 250.792 360.52C251.845 361.595 252.663 362.872 253.245 364.35C253.827 365.806 254.119 367.397 254.119 369.121C254.119 370.846 253.827 372.448 253.245 373.926C252.663 375.382 251.845 376.659 250.792 377.756C249.74 378.831 248.496 379.671 247.063 380.276C245.652 380.881 244.106 381.183 242.426 381.183C240.746 381.183 239.19 380.881 237.756 380.276C236.345 379.671 235.113 378.831 234.06 377.756C233.007 376.659 232.19 375.382 231.607 373.926C231.025 372.448 230.734 370.846 230.734 369.121Z" fill="#ADF5C3"/>
<path d="M209.715 369.121C209.715 371.115 210.141 372.873 210.992 374.396C211.843 375.919 212.986 377.118 214.419 377.991C215.853 378.865 217.454 379.302 219.224 379.302C220.344 379.302 221.363 379.179 222.281 378.932C223.2 378.686 224.029 378.316 224.768 377.823C225.529 377.331 226.201 376.748 226.784 376.076V378.563C225.798 379.436 224.723 380.097 223.558 380.545C222.393 380.97 220.949 381.183 219.224 381.183C217.589 381.183 216.066 380.892 214.655 380.31C213.266 379.705 212.056 378.865 211.026 377.79C209.995 376.715 209.189 375.438 208.607 373.96C208.024 372.481 207.733 370.868 207.733 369.121C207.733 367.374 208.024 365.761 208.607 364.283C209.189 362.805 209.995 361.528 211.026 360.453C212.056 359.378 213.266 358.549 214.655 357.966C216.066 357.362 217.589 357.059 219.224 357.059C220.949 357.059 222.393 357.283 223.558 357.731C224.723 358.157 225.798 358.806 226.784 359.68V362.133C226.201 361.461 225.529 360.89 224.768 360.419C224.006 359.926 223.166 359.557 222.248 359.31C221.329 359.064 220.321 358.941 219.224 358.941C217.454 358.941 215.853 359.378 214.419 360.251C212.986 361.102 211.843 362.29 210.992 363.813C210.141 365.336 209.715 367.105 209.715 369.121Z" fill="#ADF5C3"/>
<path d="M201.66 357.362H203.508V380.881H201.66V357.362Z" fill="#ADF5C3"/>
<path d="M184.276 374.094C184.656 375.079 185.116 375.975 185.653 376.782C186.213 377.588 186.896 378.238 187.703 378.731C188.509 379.201 189.472 379.436 190.592 379.436C192.115 379.436 193.302 379.022 194.154 378.193C195.027 377.342 195.464 376.267 195.464 374.967C195.464 373.825 195.206 372.907 194.691 372.212C194.176 371.518 193.504 370.958 192.675 370.532C191.869 370.084 191.018 369.692 190.122 369.356C189.45 369.11 188.744 368.819 188.005 368.483C187.288 368.125 186.616 367.699 185.989 367.206C185.362 366.691 184.847 366.075 184.444 365.358C184.063 364.641 183.872 363.779 183.872 362.771C183.872 361.651 184.141 360.666 184.679 359.814C185.216 358.941 185.967 358.269 186.93 357.798C187.893 357.306 188.979 357.059 190.189 357.059C191.443 357.059 192.519 357.295 193.414 357.765C194.333 358.235 195.094 358.829 195.699 359.546C196.304 360.262 196.763 361.002 197.077 361.763L195.464 362.67C195.218 362.066 194.859 361.472 194.389 360.89C193.941 360.307 193.37 359.826 192.675 359.445C191.981 359.042 191.119 358.84 190.088 358.84C188.722 358.84 187.669 359.198 186.93 359.915C186.191 360.61 185.821 361.483 185.821 362.536C185.821 363.409 186.034 364.16 186.46 364.787C186.885 365.414 187.523 365.985 188.375 366.501C189.226 366.993 190.279 367.464 191.533 367.912C192.183 368.158 192.855 368.461 193.549 368.819C194.243 369.177 194.87 369.625 195.43 370.163C196.013 370.7 196.483 371.35 196.842 372.112C197.2 372.851 197.379 373.736 197.379 374.766C197.379 375.729 197.2 376.603 196.842 377.387C196.506 378.171 196.024 378.854 195.397 379.436C194.792 379.996 194.075 380.433 193.246 380.746C192.418 381.038 191.522 381.183 190.559 381.183C189.192 381.183 187.994 380.903 186.964 380.343C185.933 379.783 185.071 379.033 184.376 378.092C183.682 377.151 183.144 376.132 182.764 375.035L184.276 374.094Z" fill="#ADF5C3"/>
<path d="M166.586 357.362H168.434V380.881H166.586V357.362ZM167.628 359.109V357.362H172.097C173.575 357.362 174.885 357.642 176.028 358.202C177.192 358.762 178.111 359.557 178.783 360.587C179.455 361.617 179.791 362.861 179.791 364.317C179.791 365.75 179.455 366.993 178.783 368.046C178.111 369.099 177.192 369.905 176.028 370.465C174.885 371.003 173.575 371.271 172.097 371.271H167.628V369.524H172.097C173.821 369.524 175.221 369.076 176.296 368.18C177.372 367.284 177.909 365.996 177.909 364.317C177.909 362.614 177.372 361.326 176.296 360.453C175.221 359.557 173.821 359.109 172.097 359.109H167.628Z" fill="#ADF5C3"/>
<rect width="33.5988" height="2.09992" transform="translate(604.716 364.04)" fill="#ADF5C3"/>
<defs>
<linearGradient id="paint0_linear_47_7616" x1="436.094" y1="2.03869e-07" x2="374.102" y2="166.621" gradientUnits="userSpaceOnUse">
<stop stop-color="#A56835"/>
<stop offset="1" stop-color="#D8AA6F"/>
</linearGradient>
</defs>
</svg>
