<svg width="40" height="54" viewBox="0 0 40 54" fill="none" xmlns="http://www.w3.org/2000/svg">
<path d="M19.602 0.00348443C20.1947 -0.00347981 20.946 -0.00299265 21.5315 0.0335312C26.7901 0.413621 31.6819 2.86113 35.1304 6.83752C37.122 9.09715 38.8518 12.4981 39.4998 15.4309C40.1545 18.3942 39.9677 21.7122 39.9679 24.7662L39.9674 35.9518L39.9658 46.9C39.9616 47.8693 39.9643 48.8388 39.9742 49.8081C39.985 50.9522 40.1884 52.481 39.2493 53.3112C38.9854 53.5446 38.2471 53.8841 37.8827 53.9159C36.5253 53.9897 35.1027 54.0107 33.7408 53.9738C31.7288 53.9189 29.5359 54.0851 27.5423 53.9364C27.4847 53.2015 27.6747 45.6046 27.9736 45.3208C28.3794 44.9355 28.9047 44.7258 29.3977 44.4782C30.2985 44.018 31.0861 43.3653 31.7046 42.5665C32.1375 42.0015 32.8558 40.586 33.0222 39.8889C33.9247 36.1096 34.255 32.1501 34.5285 28.284C34.5817 27.1208 34.2459 24.9485 32.6237 25.2152C31.6003 25.3827 31.2122 26.4663 31.0462 27.3561C30.2318 31.7213 30.2003 36.3577 28.2172 40.4208C28.1783 40.5003 28.1367 40.5129 28.0596 40.5247C27.9209 40.3627 27.9303 40.0465 27.93 39.843C27.9294 39.4062 27.9927 38.9644 28.0218 38.5285C28.0605 37.9497 28.0731 37.3682 28.0913 36.7884C28.2172 32.7834 28.8817 14.0047 27.07 11.5222C26.7996 11.1517 26.4184 10.8367 25.9515 10.7692C25.5898 10.717 25.17 10.8117 24.8773 11.0331C24.178 11.562 23.7073 13.8451 23.5928 14.6808C23.4599 15.6516 23.4942 16.6297 23.4355 17.6047C23.2301 21.0105 23.18 24.4222 23.0613 27.8318C23.0133 29.2127 23.039 30.5775 22.8417 31.9491C22.1477 30.9727 21.4505 28.3891 21.2085 27.1528C20.9037 25.5965 20.2332 19.4364 19.3993 18.6141C19.1648 18.3829 18.8614 18.2626 18.531 18.273C18.1605 18.2846 17.8215 18.4729 17.578 18.7451C16.8561 19.5522 17.0849 22.0368 17.1361 23.099C17.2294 25.0352 17.6036 26.9004 17.9882 28.7931C18.1926 29.7994 18.3792 30.8895 18.7416 31.8517C18.9582 32.4269 19.3048 33.0664 19.7224 33.5223C20.1815 34.0238 20.765 34.4437 21.3527 34.7809C21.7591 35.014 22.2107 35.2265 22.5577 35.5461C22.8478 35.8133 22.8813 36.2203 22.9381 36.5924C23.0502 37.3263 23.0068 38.1027 23.0509 38.8449C23.1894 41.0817 23.2881 43.3207 23.3469 45.561C23.4156 47.4932 23.4552 49.426 23.4656 51.3594C23.4709 51.7784 23.5866 53.7343 23.4295 53.9164C23.1897 54.0369 17.2702 53.9933 16.5213 53.9851C16.3526 53.983 15.8725 54.0092 15.7592 53.8815C15.4927 53.582 15.596 48.0473 15.6768 47.2263C16.5566 45.907 18.8492 45.8945 19.4251 43.3864C19.8283 41.6304 20.0523 40.1259 20.2498 38.2825C20.3761 37.1039 20.5555 35.0644 18.5762 35.6748C17.1272 36.2599 17.1889 38.3861 16.8763 39.6274C16.7542 40.1126 16.1782 42.7311 15.8055 42.9268C15.6685 42.8269 15.6136 42.5583 15.6069 42.402C15.5545 41.1694 15.5535 39.8662 15.5438 38.636C15.4982 35.8 15.5266 32.9633 15.6291 30.1289C15.7483 27.4651 16.0143 24.7459 16.0984 22.0894C16.159 20.1712 15.9415 17.904 15.8236 15.9697C15.719 14.8036 15.7984 13.3974 15.4034 12.2839C14.8444 10.7077 13.2369 10.9659 12.8688 12.5331C12.4592 14.2765 12.4691 16.0567 12.3356 17.8242C11.9235 22.7762 11.6647 27.7396 11.5597 32.7075C11.5314 34.0907 11.601 39.1238 11.1788 40.1156L11.0897 40.1335C10.6424 39.8434 9.91719 34.6421 9.54057 33.7918C9.48548 33.6675 9.41481 33.0848 9.35853 32.9026C8.89946 31.4147 8.92487 28.6518 7.18679 28.0896C6.63035 27.9114 6.25208 27.9925 5.77702 28.2392C5.66535 28.4126 5.50312 28.681 5.46408 28.8777C5.33029 29.5515 5.36542 30.7588 5.45796 31.4479C5.61942 32.6504 5.98333 33.917 6.23691 35.1179C6.55597 36.6292 6.86994 38.1933 7.26302 39.6827C7.404 40.2169 7.77892 41.1118 8.11429 41.5567C8.39986 41.9356 8.89376 42.4589 9.2911 42.7278C9.984 43.1969 10.8909 43.5107 11.3423 44.2731C11.4788 44.5037 11.578 45.2353 11.6134 45.5084C11.7141 46.2858 11.7129 47.271 11.7492 48.0369C11.7969 49.0429 12.2011 53.1502 12.0113 53.8533C11.8756 53.9661 11.3486 53.9636 11.154 53.9641C8.27343 53.9754 5.38872 53.9779 2.50844 53.9779C1.83143 53.9774 1.15381 53.68 0.669947 53.223C0.0525042 52.6399 0.0043086 51.6661 0.00353706 50.8717C0.00153104 48.8142 0.00682903 46.751 0.00703478 44.6944L0.00770347 31.841V23.8961C0.00821784 20.7601 -0.11811 18.0082 0.633119 14.9409C1.46942 11.5441 3.2034 8.43278 5.6546 5.93058C9.3303 2.18732 14.3481 0.0549675 19.602 0.00348443Z" fill="#B68F73"/>
</svg>
